<svg fill="none" height="1081" viewBox="0 0 1200 1081" width="1200" xmlns="http://www.w3.org/2000/svg" xmlns:xlink="http://www.w3.org/1999/xlink"><mask id="mask0_2222_8112" height="75" maskUnits="userSpaceOnUse" width="345" x="434" y="906"><path d="M779 906H434.417V980.744H779V906Z" fill="#ffffff"/></mask><mask id="mask1_2222_8112" height="75" maskUnits="userSpaceOnUse" width="345" x="434" y="906"><path d="M779 906H434.417V980.744H779V906Z" fill="#ffffff"/></mask><mask id="mask2_2222_8112" height="75" maskUnits="userSpaceOnUse" width="345" x="434" y="906"><path d="M779 906H434.417V980.744H779V906Z" fill="#ffffff"/></mask><mask id="mask3_2222_8112" height="75" maskUnits="userSpaceOnUse" width="345" x="434" y="906"><path d="M779 906H434.417V980.744H779V906Z" fill="#ffffff"/></mask><mask id="mask4_2222_8112" height="75" maskUnits="userSpaceOnUse" width="345" x="434" y="906"><path d="M779 906H434.417V980.744H779V906Z" fill="#ffffff"/></mask><mask id="mask5_2222_8112" height="75" maskUnits="userSpaceOnUse" width="345" x="434" y="906"><path d="M779 906H434.417V980.744H779V906Z" fill="#ffffff"/></mask><mask id="mask6_2222_8112" height="75" maskUnits="userSpaceOnUse" width="345" x="434" y="906"><path d="M779 906H434.417V980.744H779V906Z" fill="#ffffff"/></mask><mask id="mask7_2222_8112" height="75" maskUnits="userSpaceOnUse" width="345" x="434" y="906"><path d="M779 906H434.417V980.744H779V906Z" fill="#ffffff"/></mask><mask id="mask8_2222_8112" height="75" maskUnits="userSpaceOnUse" width="345" x="434" y="906"><path d="M779 906H434.417V980.744H779V906Z" fill="#ffffff"/></mask><rect fill="#ffffff" height="1081" rx="20" width="1200"/><path d="M218.63 154V101.636H228.115V123.804H252.38V101.636H261.891V154H252.38V131.756H228.115V154H218.63ZM288.929 154.767C285.094 154.767 281.77 153.923 278.958 152.236 276.145 150.548 273.963 148.187 272.412 145.153 270.878 142.119 270.111 138.574 270.111 134.517 270.111 130.46 270.878 126.906 272.412 123.855 273.963 120.804 276.145 118.435 278.958 116.747 281.77 115.06 285.094 114.216 288.929 114.216 292.765 114.216 296.088 115.06 298.901 116.747 301.713 118.435 303.887 120.804 305.421 123.855 306.972 126.906 307.748 130.46 307.748 134.517 307.748 138.574 306.972 142.119 305.421 145.153 303.887 148.187 301.713 150.548 298.901 152.236 296.088 153.923 292.765 154.767 288.929 154.767ZM288.98 147.352C291.06 147.352 292.799 146.781 294.196 145.639 295.594 144.48 296.634 142.929 297.316 140.986 298.015 139.043 298.364 136.878 298.364 134.491 298.364 132.088 298.015 129.915 297.316 127.972 296.634 126.011 295.594 124.452 294.196 123.293 292.799 122.134 291.06 121.554 288.98 121.554 286.85 121.554 285.077 122.134 283.662 123.293 282.265 124.452 281.216 126.011 280.517 127.972 279.836 129.915 279.495 132.088 279.495 134.491 279.495 136.878 279.836 139.043 280.517 140.986 281.216 142.929 282.265 144.48 283.662 145.639 285.077 146.781 286.85 147.352 288.98 147.352ZM322.583 154 311.487 114.727H320.922L327.825 142.341H328.183L335.24 114.727H344.572L351.629 142.188H352.012L358.814 114.727H368.274L357.152 154H347.512L340.149 127.46H339.612L332.248 154H322.583ZM407.169 154.69C404.084 154.69 401.323 153.898 398.885 152.312 396.448 150.727 394.522 148.426 393.107 145.409 391.692 142.392 390.985 138.727 390.985 134.415 390.985 130.051 391.701 126.369 393.132 123.369 394.581 120.352 396.533 118.077 398.988 116.543 401.442 114.991 404.178 114.216 407.195 114.216 409.496 114.216 411.388 114.608 412.871 115.392 414.354 116.159 415.53 117.088 416.4 118.179 417.269 119.253 417.942 120.267 418.419 121.222H418.803V101.636H428.084V154H418.982V147.812H418.419C417.942 148.767 417.252 149.781 416.348 150.855 415.445 151.912 414.252 152.815 412.769 153.565 411.286 154.315 409.419 154.69 407.169 154.69ZM409.752 147.097C411.712 147.097 413.382 146.568 414.763 145.511 416.144 144.437 417.192 142.946 417.908 141.037 418.624 139.128 418.982 136.903 418.982 134.364 418.982 131.824 418.624 129.616 417.908 127.741 417.209 125.866 416.169 124.409 414.789 123.369 413.425 122.33 411.746 121.81 409.752 121.81 407.689 121.81 405.968 122.347 404.587 123.42 403.206 124.494 402.167 125.977 401.468 127.869 400.769 129.761 400.419 131.926 400.419 134.364 400.419 136.818 400.769 139.009 401.468 140.935 402.184 142.844 403.232 144.352 404.613 145.46 406.01 146.551 407.723 147.097 409.752 147.097ZM455.078 154.767C451.243 154.767 447.919 153.923 445.106 152.236 442.294 150.548 440.112 148.187 438.561 145.153 437.027 142.119 436.26 138.574 436.26 134.517 436.26 130.46 437.027 126.906 438.561 123.855 440.112 120.804 442.294 118.435 445.106 116.747 447.919 115.06 451.243 114.216 455.078 114.216 458.913 114.216 462.237 115.06 465.049 116.747 467.862 118.435 470.035 120.804 471.569 123.855 473.12 126.906 473.896 130.46 473.896 134.517 473.896 138.574 473.12 142.119 471.569 145.153 470.035 148.187 467.862 150.548 465.049 152.236 462.237 153.923 458.913 154.767 455.078 154.767ZM455.129 147.352C457.208 147.352 458.947 146.781 460.345 145.639 461.743 144.48 462.782 142.929 463.464 140.986 464.163 139.043 464.512 136.878 464.512 134.491 464.512 132.088 464.163 129.915 463.464 127.972 462.782 126.011 461.743 124.452 460.345 123.293 458.947 122.134 457.208 121.554 455.129 121.554 452.998 121.554 451.225 122.134 449.811 123.293 448.413 124.452 447.365 126.011 446.666 127.972 445.984 129.915 445.643 132.088 445.643 134.491 445.643 136.878 445.984 139.043 446.666 140.986 447.365 142.929 448.413 144.48 449.811 145.639 451.225 146.781 452.998 147.352 455.129 147.352ZM499.138 154.767C495.201 154.767 491.8 153.949 488.936 152.312 486.09 150.659 483.9 148.324 482.365 145.307 480.831 142.273 480.064 138.702 480.064 134.594 480.064 130.554 480.831 127.009 482.365 123.957 483.917 120.889 486.081 118.503 488.86 116.798 491.638 115.077 494.902 114.216 498.652 114.216 501.073 114.216 503.357 114.608 505.505 115.392 507.669 116.159 509.578 117.352 511.232 118.972 512.902 120.591 514.215 122.653 515.169 125.159 516.124 127.648 516.601 130.614 516.601 134.057V136.895H484.411V130.656H507.729C507.712 128.884 507.328 127.307 506.578 125.926 505.828 124.528 504.78 123.429 503.434 122.628 502.104 121.827 500.553 121.426 498.78 121.426 496.888 121.426 495.226 121.886 493.794 122.807 492.363 123.71 491.246 124.903 490.445 126.386 489.661 127.852 489.26 129.463 489.243 131.219V136.665C489.243 138.949 489.661 140.909 490.496 142.545 491.331 144.165 492.499 145.409 493.999 146.278 495.499 147.131 497.255 147.557 499.266 147.557 500.613 147.557 501.831 147.369 502.922 146.994 504.013 146.602 504.959 146.031 505.76 145.281 506.561 144.531 507.167 143.602 507.576 142.494L516.218 143.466C515.672 145.75 514.632 147.744 513.098 149.449 511.581 151.136 509.638 152.449 507.269 153.386 504.9 154.307 502.189 154.767 499.138 154.767ZM555.471 125.108 547.034 126.028C546.795 125.176 546.377 124.375 545.781 123.625 545.201 122.875 544.417 122.27 543.429 121.81 542.44 121.349 541.23 121.119 539.798 121.119 537.872 121.119 536.252 121.537 534.94 122.372 533.645 123.207 533.005 124.29 533.022 125.619 533.005 126.761 533.423 127.69 534.275 128.406 535.145 129.122 536.576 129.71 538.571 130.17L545.27 131.602C548.985 132.403 551.747 133.673 553.554 135.412 555.377 137.151 556.298 139.426 556.315 142.239 556.298 144.71 555.574 146.892 554.142 148.784 552.727 150.659 550.758 152.125 548.235 153.182 545.713 154.239 542.815 154.767 539.542 154.767 534.735 154.767 530.866 153.761 527.934 151.75 525.002 149.722 523.255 146.901 522.693 143.287L531.718 142.418C532.127 144.19 532.997 145.528 534.326 146.432 535.656 147.335 537.386 147.787 539.517 147.787 541.716 147.787 543.48 147.335 544.809 146.432 546.156 145.528 546.829 144.412 546.829 143.082 546.829 141.957 546.395 141.028 545.525 140.295 544.673 139.562 543.343 139 541.537 138.608L534.838 137.202C531.071 136.418 528.284 135.097 526.477 133.239 524.67 131.364 523.775 128.994 523.792 126.131 523.775 123.71 524.431 121.614 525.761 119.841 527.108 118.051 528.974 116.67 531.36 115.699 533.764 114.71 536.534 114.216 539.67 114.216 544.272 114.216 547.895 115.196 550.537 117.156 553.196 119.116 554.841 121.767 555.471 125.108ZM593.108 154.793C590.619 154.793 588.377 154.349 586.383 153.463 584.406 152.56 582.838 151.23 581.679 149.474 580.537 147.719 579.966 145.554 579.966 142.98 579.966 140.764 580.375 138.932 581.193 137.483 582.011 136.034 583.127 134.875 584.542 134.006 585.957 133.136 587.551 132.48 589.324 132.037 591.113 131.577 592.963 131.244 594.872 131.04 597.173 130.801 599.039 130.588 600.471 130.401 601.903 130.196 602.943 129.889 603.591 129.48 604.255 129.054 604.588 128.398 604.588 127.511V127.358C604.588 125.432 604.017 123.94 602.875 122.884 601.733 121.827 600.088 121.298 597.94 121.298 595.673 121.298 593.875 121.793 592.545 122.781 591.233 123.77 590.346 124.937 589.886 126.284L581.244 125.057C581.926 122.67 583.051 120.676 584.619 119.074 586.187 117.455 588.105 116.244 590.372 115.443 592.639 114.625 595.145 114.216 597.889 114.216 599.781 114.216 601.664 114.438 603.539 114.881 605.414 115.324 607.127 116.057 608.679 117.08 610.23 118.085 611.474 119.457 612.412 121.196 613.366 122.935 613.843 125.108 613.843 127.716V154H604.946V148.605H604.639C604.076 149.696 603.284 150.719 602.261 151.673 601.255 152.611 599.985 153.369 598.451 153.949 596.934 154.511 595.153 154.793 593.108 154.793ZM595.511 147.991C597.369 147.991 598.98 147.625 600.343 146.892 601.707 146.142 602.755 145.153 603.488 143.926 604.238 142.699 604.613 141.361 604.613 139.912V135.284C604.324 135.523 603.829 135.744 603.13 135.949 602.449 136.153 601.681 136.332 600.829 136.486 599.977 136.639 599.133 136.776 598.298 136.895 597.463 137.014 596.738 137.116 596.125 137.202 594.744 137.389 593.508 137.696 592.417 138.122 591.326 138.548 590.466 139.145 589.835 139.912 589.204 140.662 588.889 141.634 588.889 142.827 588.889 144.531 589.511 145.818 590.755 146.688 592 147.557 593.585 147.991 595.511 147.991ZM654.19 125.108 645.752 126.028C645.514 125.176 645.096 124.375 644.5 123.625 643.92 122.875 643.136 122.27 642.147 121.81 641.159 121.349 639.949 121.119 638.517 121.119 636.591 121.119 634.971 121.537 633.659 122.372 632.363 123.207 631.724 124.29 631.741 125.619 631.724 126.761 632.142 127.69 632.994 128.406 633.863 129.122 635.295 129.71 637.289 130.17L643.988 131.602C647.704 132.403 650.466 133.673 652.272 135.412 654.096 137.151 655.017 139.426 655.034 142.239 655.017 144.71 654.292 146.892 652.86 148.784 651.446 150.659 649.477 152.125 646.954 153.182 644.431 154.239 641.534 154.767 638.261 154.767 633.454 154.767 629.585 153.761 626.653 151.75 623.721 149.722 621.974 146.901 621.412 143.287L630.437 142.418C630.846 144.19 631.716 145.528 633.045 146.432 634.375 147.335 636.105 147.787 638.235 147.787 640.434 147.787 642.199 147.335 643.528 146.432 644.875 145.528 645.548 144.412 645.548 143.082 645.548 141.957 645.113 141.028 644.244 140.295 643.392 139.562 642.062 139 640.255 138.608L633.556 137.202C629.789 136.418 627.002 135.097 625.196 133.239 623.389 131.364 622.494 128.994 622.511 126.131 622.494 123.71 623.15 121.614 624.48 119.841 625.826 118.051 627.693 116.67 630.079 115.699 632.483 114.71 635.252 114.216 638.389 114.216 642.991 114.216 646.613 115.196 649.255 117.156 651.914 119.116 653.559 121.767 654.19 125.108ZM668.419 168.727C667.157 168.727 665.99 168.625 664.916 168.42 663.859 168.233 663.015 168.011 662.385 167.756L664.532 160.545C665.879 160.938 667.081 161.125 668.137 161.108 669.194 161.091 670.123 160.759 670.924 160.111 671.743 159.48 672.433 158.423 672.995 156.94L673.788 154.818 659.547 114.727H669.365L678.416 144.386H678.825L687.902 114.727H697.745L682.021 158.756C681.288 160.835 680.316 162.616 679.106 164.099 677.896 165.599 676.413 166.741 674.657 167.526 672.919 168.327 670.839 168.727 668.419 168.727ZM704.15 154V114.727H712.997V121.401H713.457C714.275 119.151 715.63 117.395 717.522 116.134 719.414 114.855 721.673 114.216 724.298 114.216 726.957 114.216 729.199 114.864 731.022 116.159 732.863 117.437 734.159 119.185 734.909 121.401H735.318C736.187 119.219 737.653 117.48 739.716 116.185 741.795 114.872 744.258 114.216 747.105 114.216 750.718 114.216 753.667 115.358 755.951 117.642 758.235 119.926 759.377 123.259 759.377 127.639V154H750.096V129.071C750.096 126.634 749.449 124.852 748.153 123.727 746.858 122.585 745.272 122.014 743.397 122.014 741.164 122.014 739.417 122.713 738.156 124.111 736.912 125.491 736.289 127.29 736.289 129.506V154H727.213V128.688C727.213 126.659 726.599 125.04 725.372 123.83 724.162 122.619 722.576 122.014 720.616 122.014 719.287 122.014 718.076 122.355 716.985 123.037 715.895 123.702 715.025 124.648 714.377 125.875 713.73 127.085 713.406 128.5 713.406 130.119V154H704.15ZM768.767 154V114.727H777.614V121.401H778.074C778.892 119.151 780.248 117.395 782.14 116.134 784.032 114.855 786.29 114.216 788.915 114.216 791.574 114.216 793.816 114.864 795.64 116.159 797.48 117.437 798.776 119.185 799.526 121.401H799.935C800.804 119.219 802.27 117.48 804.333 116.185 806.412 114.872 808.875 114.216 811.722 114.216 815.336 114.216 818.284 115.358 820.569 117.642 822.853 119.926 823.995 123.259 823.995 127.639V154H814.713V129.071C814.713 126.634 814.066 124.852 812.77 123.727 811.475 122.585 809.89 122.014 808.015 122.014 805.782 122.014 804.034 122.713 802.773 124.111 801.529 125.491 800.907 127.29 800.907 129.506V154H791.83V128.688C791.83 126.659 791.216 125.04 789.989 123.83 788.779 122.619 787.194 122.014 785.233 122.014 783.904 122.014 782.694 122.355 781.603 123.037 780.512 123.702 779.642 124.648 778.995 125.875 778.347 127.085 778.023 128.5 778.023 130.119V154H768.767ZM850.771 154.767C846.833 154.767 843.433 153.949 840.569 152.312 837.723 150.659 835.532 148.324 833.998 145.307 832.464 142.273 831.697 138.702 831.697 134.594 831.697 130.554 832.464 127.009 833.998 123.957 835.549 120.889 837.714 118.503 840.493 116.798 843.271 115.077 846.535 114.216 850.285 114.216 852.706 114.216 854.99 114.608 857.137 115.392 859.302 116.159 861.211 117.352 862.865 118.972 864.535 120.591 865.848 122.653 866.802 125.159 867.757 127.648 868.234 130.614 868.234 134.057V136.895H836.044V130.656H859.362C859.345 128.884 858.961 127.307 858.211 125.926 857.461 124.528 856.413 123.429 855.066 122.628 853.737 121.827 852.186 121.426 850.413 121.426 848.521 121.426 846.859 121.886 845.427 122.807 843.995 123.71 842.879 124.903 842.078 126.386 841.294 127.852 840.893 129.463 840.876 131.219V136.665C840.876 138.949 841.294 140.909 842.129 142.545 842.964 144.165 844.132 145.409 845.632 146.278 847.132 147.131 848.887 147.557 850.899 147.557 852.245 147.557 853.464 147.369 854.555 146.994 855.646 146.602 856.592 146.031 857.393 145.281 858.194 144.531 858.799 143.602 859.208 142.494L867.85 143.466C867.305 145.75 866.265 147.744 864.731 149.449 863.214 151.136 861.271 152.449 858.902 153.386 856.532 154.307 853.822 154.767 850.771 154.767ZM895.675 114.727V121.886H873.098V114.727H895.675ZM878.672 105.318H887.928V142.188C887.928 143.432 888.115 144.386 888.49 145.051 888.882 145.699 889.394 146.142 890.025 146.381 890.655 146.619 891.354 146.739 892.121 146.739 892.701 146.739 893.229 146.696 893.706 146.611 894.201 146.526 894.576 146.449 894.831 146.381L896.391 153.616C895.897 153.787 895.189 153.974 894.269 154.179 893.365 154.384 892.257 154.503 890.945 154.537 888.627 154.605 886.539 154.256 884.681 153.489 882.823 152.705 881.348 151.494 880.257 149.858 879.184 148.222 878.655 146.176 878.672 143.722V105.318ZM903.416 154V114.727H912.39V121.273H912.799C913.515 119.006 914.743 117.259 916.481 116.031 918.237 114.787 920.24 114.165 922.49 114.165 923.001 114.165 923.572 114.19 924.203 114.241 924.85 114.276 925.387 114.335 925.814 114.42V122.935C925.422 122.798 924.799 122.679 923.947 122.577 923.112 122.457 922.302 122.398 921.518 122.398 919.831 122.398 918.314 122.764 916.967 123.497 915.637 124.213 914.589 125.21 913.822 126.489 913.055 127.767 912.672 129.241 912.672 130.912V154H903.416ZM931.963 154V114.727H941.218V154H931.963ZM936.616 109.153C935.15 109.153 933.889 108.668 932.832 107.696 931.775 106.707 931.247 105.523 931.247 104.142 931.247 102.744 931.775 101.56 932.832 100.588 933.889 99.5994 935.15 99.1051 936.616 99.1051 938.099 99.1051 939.36 99.5994 940.4 100.588 941.457 101.56 941.985 102.744 941.985 104.142 941.985 105.523 941.457 106.707 940.4 107.696 939.36 108.668 938.099 109.153 936.616 109.153ZM967.867 154.767C963.946 154.767 960.58 153.906 957.767 152.185 954.972 150.463 952.816 148.085 951.299 145.051 949.799 142 949.049 138.489 949.049 134.517 949.049 130.528 949.816 127.009 951.35 123.957 952.884 120.889 955.049 118.503 957.844 116.798 960.657 115.077 963.98 114.216 967.816 114.216 971.003 114.216 973.824 114.804 976.279 115.98 978.75 117.139 980.719 118.784 982.185 120.915 983.651 123.028 984.486 125.5 984.691 128.33H975.844C975.486 126.437 974.634 124.861 973.287 123.599 971.958 122.321 970.176 121.682 967.944 121.682 966.051 121.682 964.39 122.193 962.958 123.216 961.526 124.222 960.409 125.67 959.608 127.562 958.824 129.455 958.432 131.722 958.432 134.364 958.432 137.04 958.824 139.341 959.608 141.267 960.392 143.176 961.492 144.651 962.907 145.69 964.338 146.713 966.017 147.224 967.944 147.224 969.307 147.224 970.526 146.969 971.6 146.457 972.691 145.929 973.603 145.17 974.336 144.182 975.069 143.193 975.571 141.991 975.844 140.577H984.691C984.469 143.355 983.651 145.818 982.236 147.966 980.821 150.097 978.895 151.767 976.458 152.977 974.02 154.17 971.157 154.767 967.867 154.767ZM327.751 241.767C323.814 241.767 320.413 240.949 317.55 239.312 314.703 237.659 312.513 235.324 310.979 232.307 309.445 229.273 308.678 225.702 308.678 221.594 308.678 217.554 309.445 214.009 310.979 210.957 312.53 207.889 314.695 205.503 317.473 203.798 320.251 202.077 323.516 201.216 327.266 201.216 329.686 201.216 331.97 201.608 334.118 202.392 336.283 203.159 338.192 204.352 339.845 205.972 341.516 207.591 342.828 209.653 343.783 212.159 344.737 214.648 345.214 217.614 345.214 221.057V223.895H313.024V217.656H336.342C336.325 215.884 335.942 214.307 335.192 212.926 334.442 211.528 333.393 210.429 332.047 209.628 330.717 208.827 329.166 208.426 327.393 208.426 325.501 208.426 323.839 208.886 322.408 209.807 320.976 210.71 319.859 211.903 319.058 213.386 318.274 214.852 317.874 216.463 317.857 218.219V223.665C317.857 225.949 318.274 227.909 319.109 229.545 319.945 231.165 321.112 232.409 322.612 233.278 324.112 234.131 325.868 234.557 327.879 234.557 329.226 234.557 330.445 234.369 331.536 233.994 332.626 233.602 333.572 233.031 334.374 232.281 335.175 231.531 335.78 230.602 336.189 229.494L344.831 230.466C344.286 232.75 343.246 234.744 341.712 236.449 340.195 238.136 338.251 239.449 335.882 240.386 333.513 241.307 330.803 241.767 327.751 241.767ZM362.3 217.989V241H353.045V201.727H361.891V208.401H362.352C363.255 206.202 364.695 204.455 366.673 203.159 368.667 201.864 371.13 201.216 374.062 201.216 376.772 201.216 379.133 201.795 381.144 202.955 383.173 204.114 384.741 205.793 385.849 207.991 386.974 210.19 387.528 212.858 387.511 215.994V241H378.255V217.426C378.255 214.801 377.573 212.747 376.21 211.264 374.863 209.781 372.996 209.04 370.61 209.04 368.991 209.04 367.55 209.398 366.289 210.114 365.045 210.812 364.065 211.827 363.349 213.156 362.65 214.486 362.3 216.097 362.3 217.989ZM414.05 241.767C410.13 241.767 406.763 240.906 403.951 239.185 401.156 237.463 398.999 235.085 397.482 232.051 395.982 229 395.232 225.489 395.232 221.517 395.232 217.528 395.999 214.009 397.533 210.957 399.067 207.889 401.232 205.503 404.028 203.798 406.84 202.077 410.164 201.216 413.999 201.216 417.187 201.216 420.008 201.804 422.462 202.98 424.934 204.139 426.903 205.784 428.369 207.915 429.835 210.028 430.67 212.5 430.874 215.33H422.028C421.67 213.437 420.817 211.861 419.471 210.599 418.141 209.321 416.36 208.682 414.127 208.682 412.235 208.682 410.573 209.193 409.141 210.216 407.71 211.222 406.593 212.67 405.792 214.562 405.008 216.455 404.616 218.722 404.616 221.364 404.616 224.04 405.008 226.341 405.792 228.267 406.576 230.176 407.675 231.651 409.09 232.69 410.522 233.713 412.201 234.224 414.127 234.224 415.491 234.224 416.71 233.969 417.783 233.457 418.874 232.929 419.786 232.17 420.519 231.182 421.252 230.193 421.755 228.991 422.028 227.577H430.874C430.653 230.355 429.835 232.818 428.42 234.966 427.005 237.097 425.079 238.767 422.641 239.977 420.204 241.17 417.34 241.767 414.05 241.767ZM438.474 241V201.727H447.449V208.273H447.858C448.574 206.006 449.801 204.259 451.54 203.031 453.295 201.787 455.298 201.165 457.548 201.165 458.06 201.165 458.631 201.19 459.261 201.241 459.909 201.276 460.446 201.335 460.872 201.42V209.935C460.48 209.798 459.858 209.679 459.006 209.577 458.17 209.457 457.361 209.398 456.577 209.398 454.889 209.398 453.372 209.764 452.026 210.497 450.696 211.213 449.648 212.21 448.881 213.489 448.114 214.767 447.73 216.241 447.73 217.912V241H438.474ZM473.969 255.727C472.708 255.727 471.54 255.625 470.467 255.42 469.41 255.233 468.566 255.011 467.935 254.756L470.083 247.545C471.43 247.938 472.631 248.125 473.688 248.108 474.745 248.091 475.674 247.759 476.475 247.111 477.293 246.48 477.984 245.423 478.546 243.94L479.339 241.818 465.097 201.727H474.915L483.967 231.386H484.376L493.452 201.727H503.296L487.572 245.756C486.839 247.835 485.867 249.616 484.657 251.099 483.447 252.599 481.964 253.741 480.208 254.526 478.469 255.327 476.39 255.727 473.969 255.727ZM509.701 255.727V201.727H518.803V208.222H519.34C519.817 207.267 520.491 206.253 521.36 205.179 522.229 204.088 523.406 203.159 524.888 202.392 526.371 201.608 528.263 201.216 530.565 201.216 533.599 201.216 536.335 201.991 538.772 203.543 541.227 205.077 543.17 207.352 544.602 210.369 546.05 213.369 546.775 217.051 546.775 221.415 546.775 225.727 546.067 229.392 544.653 232.409 543.238 235.426 541.312 237.727 538.874 239.312 536.437 240.898 533.675 241.69 530.59 241.69 528.34 241.69 526.474 241.315 524.991 240.565 523.508 239.815 522.315 238.912 521.411 237.855 520.525 236.781 519.835 235.767 519.34 234.812H518.957V255.727H509.701ZM518.778 221.364C518.778 223.903 519.136 226.128 519.852 228.037 520.585 229.946 521.633 231.437 522.996 232.511 524.377 233.568 526.048 234.097 528.008 234.097 530.053 234.097 531.766 233.551 533.147 232.46 534.528 231.352 535.567 229.844 536.266 227.935 536.982 226.009 537.34 223.818 537.34 221.364 537.34 218.926 536.991 216.761 536.292 214.869 535.593 212.977 534.553 211.494 533.173 210.42 531.792 209.347 530.07 208.81 528.008 208.81 526.031 208.81 524.352 209.33 522.971 210.369 521.59 211.409 520.542 212.866 519.826 214.741 519.127 216.616 518.778 218.824 518.778 221.364ZM574.312 201.727V208.886H551.735V201.727H574.312ZM557.309 192.318H566.565V229.188C566.565 230.432 566.752 231.386 567.127 232.051 567.519 232.699 568.031 233.142 568.661 233.381 569.292 233.619 569.991 233.739 570.758 233.739 571.337 233.739 571.866 233.696 572.343 233.611 572.837 233.526 573.212 233.449 573.468 233.381L575.028 240.616C574.533 240.787 573.826 240.974 572.906 241.179 572.002 241.384 570.894 241.503 569.582 241.537 567.263 241.605 565.175 241.256 563.317 240.489 561.46 239.705 559.985 238.494 558.894 236.858 557.82 235.222 557.292 233.176 557.309 230.722V192.318ZM582.053 241V201.727H591.308V241H582.053ZM586.706 196.153C585.24 196.153 583.979 195.668 582.922 194.696 581.865 193.707 581.337 192.523 581.337 191.142 581.337 189.744 581.865 188.56 582.922 187.588 583.979 186.599 585.24 186.105 586.706 186.105 588.189 186.105 589.45 186.599 590.49 187.588 591.547 188.56 592.075 189.744 592.075 191.142 592.075 192.523 591.547 193.707 590.49 194.696 589.45 195.668 588.189 196.153 586.706 196.153ZM617.957 241.767C614.121 241.767 610.798 240.923 607.985 239.236 605.173 237.548 602.991 235.187 601.44 232.153 599.906 229.119 599.138 225.574 599.138 221.517 599.138 217.46 599.906 213.906 601.44 210.855 602.991 207.804 605.173 205.435 607.985 203.747 610.798 202.06 614.121 201.216 617.957 201.216 621.792 201.216 625.116 202.06 627.928 203.747 630.741 205.435 632.914 207.804 634.448 210.855 635.999 213.906 636.775 217.46 636.775 221.517 636.775 225.574 635.999 229.119 634.448 232.153 632.914 235.187 630.741 237.548 627.928 239.236 625.116 240.923 621.792 241.767 617.957 241.767ZM618.008 234.352C620.087 234.352 621.826 233.781 623.224 232.639 624.621 231.48 625.661 229.929 626.343 227.986 627.042 226.043 627.391 223.878 627.391 221.491 627.391 219.088 627.042 216.915 626.343 214.972 625.661 213.011 624.621 211.452 623.224 210.293 621.826 209.134 620.087 208.554 618.008 208.554 615.877 208.554 614.104 209.134 612.69 210.293 611.292 211.452 610.244 213.011 609.545 214.972 608.863 216.915 608.522 219.088 608.522 221.491 608.522 223.878 608.863 226.043 609.545 227.986 610.244 229.929 611.292 231.48 612.69 232.639 614.104 233.781 615.877 234.352 618.008 234.352ZM653.886 217.989V241H644.631V201.727H653.477V208.401H653.938C654.841 206.202 656.281 204.455 658.259 203.159 660.253 201.864 662.716 201.216 665.648 201.216 668.358 201.216 670.719 201.795 672.73 202.955 674.759 204.114 676.327 205.793 677.435 207.991 678.56 210.19 679.114 212.858 679.097 215.994V241H669.841V217.426C669.841 214.801 669.159 212.747 667.795 211.264 666.449 209.781 664.582 209.04 662.196 209.04 660.577 209.04 659.136 209.398 657.875 210.114 656.631 210.812 655.651 211.827 654.935 213.156 654.236 214.486 653.886 216.097 653.886 217.989ZM714.47 241 703.374 201.727H712.808L719.712 229.341H720.07L727.126 201.727H736.459L743.516 229.188H743.899L750.7 201.727H760.161L749.038 241H739.399L732.036 214.46H731.499L724.135 241H714.47ZM782.629 241.767C778.793 241.767 775.469 240.923 772.657 239.236 769.844 237.548 767.663 235.187 766.112 232.153 764.577 229.119 763.81 225.574 763.81 221.517 763.81 217.46 764.577 213.906 766.112 210.855 767.663 207.804 769.844 205.435 772.657 203.747 775.469 202.06 778.793 201.216 782.629 201.216 786.464 201.216 789.788 202.06 792.6 203.747 795.413 205.435 797.586 207.804 799.12 210.855 800.671 213.906 801.447 217.46 801.447 221.517 801.447 225.574 800.671 229.119 799.12 232.153 797.586 235.187 795.413 237.548 792.6 239.236 789.788 240.923 786.464 241.767 782.629 241.767ZM782.68 234.352C784.759 234.352 786.498 233.781 787.896 232.639 789.293 231.48 790.333 229.929 791.015 227.986 791.714 226.043 792.063 223.878 792.063 221.491 792.063 219.088 791.714 216.915 791.015 214.972 790.333 213.011 789.293 211.452 787.896 210.293 786.498 209.134 784.759 208.554 782.68 208.554 780.549 208.554 778.776 209.134 777.362 210.293 775.964 211.452 774.915 213.011 774.217 214.972 773.535 216.915 773.194 219.088 773.194 221.491 773.194 223.878 773.535 226.043 774.217 227.986 774.915 229.929 775.964 231.48 777.362 232.639 778.776 233.781 780.549 234.352 782.68 234.352ZM809.303 241V201.727H818.277V208.273H818.686C819.402 206.006 820.629 204.259 822.368 203.031 824.124 201.787 826.126 201.165 828.376 201.165 828.888 201.165 829.459 201.19 830.089 201.241 830.737 201.276 831.274 201.335 831.7 201.42V209.935C831.308 209.798 830.686 209.679 829.834 209.577 828.999 209.457 828.189 209.398 827.405 209.398 825.717 209.398 824.2 209.764 822.854 210.497 821.524 211.213 820.476 212.21 819.709 213.489 818.942 214.767 818.558 216.241 818.558 217.912V241H809.303ZM846.287 228.676 846.261 217.503H847.744L861.858 201.727H872.673L855.312 221.057H853.395L846.287 228.676ZM837.849 241V188.636H847.105V241H837.849ZM862.497 241 849.713 223.128 855.952 216.608 873.568 241H862.497ZM887.688 225.608V224.943C887.705 221.858 887.995 219.403 888.558 217.58 889.137 215.756 889.955 214.29 891.012 213.182 892.069 212.057 893.356 211.026 894.873 210.088 895.913 209.44 896.842 208.733 897.66 207.966 898.495 207.182 899.151 206.312 899.629 205.358 900.106 204.386 900.344 203.304 900.344 202.111 900.344 200.764 900.029 199.597 899.398 198.608 898.768 197.619 897.915 196.852 896.842 196.307 895.785 195.761 894.6 195.489 893.288 195.489 892.077 195.489 890.927 195.753 889.836 196.281 888.762 196.793 887.867 197.577 887.151 198.634 886.452 199.673 886.06 200.994 885.975 202.597H876.873C876.958 199.358 877.742 196.648 879.225 194.466 880.725 192.284 882.702 190.648 885.157 189.557 887.629 188.466 890.356 187.92 893.339 187.92 896.594 187.92 899.458 188.491 901.93 189.634 904.418 190.776 906.353 192.403 907.734 194.517 909.131 196.614 909.83 199.102 909.83 201.983 909.83 203.926 909.515 205.665 908.884 207.199 908.271 208.733 907.393 210.097 906.251 211.29 905.109 212.483 903.754 213.548 902.185 214.486 900.805 215.338 899.671 216.224 898.785 217.145 897.915 218.065 897.268 219.148 896.842 220.392 896.433 221.619 896.219 223.136 896.202 224.943V225.608H887.688ZM892.137 241.562C890.603 241.562 889.282 241.017 888.174 239.926 887.066 238.835 886.512 237.506 886.512 235.938 886.512 234.403 887.066 233.091 888.174 232 889.282 230.909 890.603 230.364 892.137 230.364 893.654 230.364 894.967 230.909 896.075 232 897.2 233.091 897.762 234.403 897.762 235.938 897.762 236.977 897.498 237.923 896.969 238.776 896.458 239.628 895.776 240.31 894.924 240.821 894.089 241.315 893.16 241.562 892.137 241.562Z" fill="#000000"/><circle cx="1080" cy="504" fill="#95d1f9" r="60"/><circle cx="120" cy="504" fill="#95d1f9" r="60"/><circle cx="597" cy="373" fill="#95d1f9" r="60"/><path d="M608.712 359.775C608.712 358.383 609.833 357.263 611.225 357.263 612.617 357.263 613.737 358.383 613.737 359.775 613.737 361.167 612.617 362.288 611.225 362.288 609.833 362.288 608.712 361.167 608.712 359.775ZM607.875 381.55C606.88 381.55 605.907 381.477 604.954 381.32L602.023 384.073C601.646 384.638 601.007 384.9 600.337 384.9H596.15V389.088C596.15 390.48 595.03 391.6 593.637 391.6H589.45V395.788C589.45 397.18 588.33 398.3 586.937 398.3H575.212C573.825 398.3 572.7 397.18 572.7 395.788V385.738C572.7 385.068 572.965 384.429 573.436 383.958L589.963 367.438C589.628 365.962 589.45 364.612 589.45 363.125 589.45 352.949 597.699 344.7 607.875 344.7 618.051 344.7 626.3 352.949 626.3 363.125 626.3 373.301 618.051 381.55 607.875 381.55ZM607.875 378.2C616.198 378.2 622.95 371.448 622.95 363.125 622.95 354.799 616.198 348.05 607.875 348.05 599.552 348.05 592.8 354.799 592.8 363.125 592.8 364.35 592.947 365.439 593.124 366.653L593.648 368.485 576.05 386.083V394.95H586.1V388.25H592.8V381.55H599.992L603.792 377.739 605.488 378.012C606.263 378.137 607.058 378.2 607.875 378.2Z" fill="#000000"/><path d="M1081.85 512.4H1067.05C1066.03 512.4 1065.2 513.233 1065.2 514.25 1065.2 515.268 1066.03 516.1 1067.05 516.1H1081.85C1082.87 516.1 1083.7 515.272 1083.7 514.25 1083.7 513.228 1082.87 512.4 1081.85 512.4ZM1092.95 501.3H1067.05C1066.03 501.3 1065.2 502.133 1065.2 503.15 1065.2 504.168 1066.03 505 1067.05 505H1092.95C1093.97 505 1094.8 504.168 1094.8 503.15 1094.8 502.133 1093.97 501.3 1092.95 501.3ZM1092.95 490.2H1067.05C1066.03 490.2 1065.2 491.033 1065.2 492.05 1065.2 493.068 1066.03 493.9 1067.05 493.9H1092.95C1093.97 493.9 1094.8 493.068 1094.8 492.05 1094.8 491.033 1093.97 490.2 1092.95 490.2ZM1094.8 475.4H1065.2C1061.11 475.4 1057.8 478.713 1057.8 482.8V527.2C1057.8 531.287 1061.11 534.6 1065.2 534.6H1094.8C1098.89 534.6 1102.2 531.287 1102.2 527.2V482.8C1102.2 478.713 1098.88 475.4 1094.8 475.4ZM1098.5 527.2C1098.5 529.24 1096.84 530.9 1094.8 530.9H1065.2C1063.16 530.9 1061.5 529.24 1061.5 527.2V482.8C1061.5 480.76 1063.16 479.1 1065.2 479.1H1094.8C1096.84 479.1 1098.5 480.76 1098.5 482.8V527.2Z" fill="#000000"/><path d="M121.85 511.4H107.05C106.028 511.4 105.2 512.233 105.2 513.25 105.2 514.268 106.028 515.1 107.05 515.1H121.85C122.872 515.1 123.7 514.272 123.7 513.25 123.7 512.228 122.868 511.4 121.85 511.4ZM132.95 500.3H107.05C106.028 500.3 105.2 501.133 105.2 502.15 105.2 503.168 106.028 504 107.05 504H132.95C133.968 504 134.8 503.168 134.8 502.15 134.8 501.133 133.968 500.3 132.95 500.3ZM132.95 489.2H107.05C106.028 489.2 105.2 490.033 105.2 491.05 105.2 492.068 106.028 492.9 107.05 492.9H132.95C133.968 492.9 134.8 492.068 134.8 491.05 134.8 490.033 133.968 489.2 132.95 489.2ZM134.8 474.4H105.2C101.113 474.4 97.8 477.713 97.8 481.8V526.2C97.8 530.287 101.113 533.6 105.2 533.6H134.8C138.887 533.6 142.2 530.287 142.2 526.2V481.8C142.2 477.713 138.882 474.4 134.8 474.4ZM138.5 526.2C138.5 528.24 136.84 529.9 134.8 529.9H105.2C103.16 529.9 101.5 528.24 101.5 526.2V481.8C101.5 479.76 103.16 478.1 105.2 478.1H134.8C136.84 478.1 138.5 479.76 138.5 481.8V526.2Z" fill="#000000"/><circle cx="597.5" cy="686.5" fill="#e2f1ff" r="82.5"/><circle cx="597" cy="686" fill="#95d1f9" r="60"/><g fill="#000000"><path d="M598.75 700.875C598.75 701.838 597.962 702.625 597 702.625 596.037 702.625 595.25 701.838 595.25 700.875V692.125C595.25 691.163 596.037 690.375 597 690.375 597.962 690.375 598.75 691.163 598.75 692.125V700.875ZM597 658C604.733 658 611 664.268 611 672V679H612.75C617.584 679 621.5 682.916 621.5 687.75V705.25C621.5 710.084 617.584 714 612.75 714H581.25C576.418 714 572.5 710.084 572.5 705.25V687.75C572.5 682.916 576.418 679 581.25 679H583V672C583 664.268 589.267 658 597 658ZM597 661.5C591.105 661.5 586.5 666.201 586.5 672V679H607.5V672C607.5 666.201 602.797 661.5 597 661.5ZM581.25 682.5C578.35 682.5 576 684.852 576 687.75V705.25C576 708.148 578.35 710.5 581.25 710.5H612.75C615.648 710.5 618 708.148 618 705.25V687.75C618 684.852 615.648 682.5 612.75 682.5H581.25Z"/><path d="M1019.83 626V604.182H1027.21C1028.92 604.182 1030.32 604.491 1031.4 605.109 1032.5 605.719 1033.31 606.547 1033.83 607.591 1034.36 608.635 1034.62 609.8 1034.62 611.085 1034.62 612.371 1034.36 613.539 1033.83 614.59 1033.31 615.641 1032.51 616.479 1031.43 617.104 1030.34 617.722 1028.95 618.031 1027.25 618.031H1021.96V615.688H1027.16C1028.34 615.688 1029.28 615.485 1029.99 615.08 1030.7 614.675 1031.21 614.129 1031.53 613.44 1031.86 612.744 1032.02 611.959 1032.02 611.085 1032.02 610.212 1031.86 609.43 1031.53 608.741 1031.21 608.053 1030.69 607.513 1029.98 607.122 1029.26 606.724 1028.31 606.526 1027.12 606.526H1022.48V626H1019.83ZM1040.45 604.182V626H1037.94V604.182H1040.45ZM1049.27 626.384C1048.23 626.384 1047.29 626.188 1046.45 625.798 1045.6 625.4 1044.93 624.828 1044.43 624.082 1043.94 623.33 1043.69 622.42 1043.69 621.355 1043.69 620.418 1043.87 619.658 1044.24 619.075 1044.61 618.486 1045.11 618.024 1045.72 617.69 1046.34 617.357 1047.02 617.108 1047.77 616.945 1048.52 616.774 1049.28 616.639 1050.04 616.54 1051.03 616.412 1051.84 616.316 1052.46 616.252 1053.08 616.181 1053.54 616.064 1053.82 615.901 1054.11 615.737 1054.26 615.453 1054.26 615.048V614.963C1054.26 613.912 1053.97 613.095 1053.39 612.513 1052.83 611.93 1051.96 611.639 1050.8 611.639 1049.6 611.639 1048.66 611.902 1047.98 612.428 1047.3 612.953 1046.82 613.514 1046.54 614.111L1044.16 613.259C1044.58 612.264 1045.15 611.49 1045.86 610.936 1046.58 610.375 1047.36 609.984 1048.21 609.764 1049.06 609.537 1049.9 609.423 1050.72 609.423 1051.25 609.423 1051.85 609.487 1052.53 609.615 1053.22 609.736 1053.88 609.988 1054.52 610.371 1055.17 610.755 1055.71 611.334 1056.13 612.108 1056.56 612.882 1056.77 613.919 1056.77 615.219V626H1054.26V623.784H1054.13C1053.96 624.139 1053.67 624.519 1053.28 624.924 1052.88 625.329 1052.35 625.673 1051.69 625.957 1051.03 626.241 1050.22 626.384 1049.27 626.384ZM1049.65 624.125C1050.65 624.125 1051.49 623.93 1052.17 623.539 1052.86 623.148 1053.38 622.644 1053.72 622.026 1054.08 621.408 1054.26 620.759 1054.26 620.077V617.776C1054.15 617.903 1053.92 618.021 1053.55 618.127 1053.2 618.227 1052.79 618.315 1052.32 618.393 1051.86 618.464 1051.41 618.528 1050.96 618.585 1050.53 618.635 1050.18 618.678 1049.91 618.713 1049.26 618.798 1048.65 618.937 1048.08 619.129 1047.52 619.313 1047.06 619.594 1046.71 619.97 1046.37 620.339 1046.2 620.844 1046.2 621.483 1046.2 622.357 1046.53 623.017 1047.17 623.464 1047.83 623.905 1048.65 624.125 1049.65 624.125ZM1060.76 626V609.636H1063.27V626H1060.76ZM1062.04 606.909C1061.55 606.909 1061.13 606.742 1060.77 606.408 1060.42 606.075 1060.25 605.673 1060.25 605.205 1060.25 604.736 1060.42 604.335 1060.77 604.001 1061.13 603.667 1061.55 603.5 1062.04 603.5 1062.53 603.5 1062.95 603.667 1063.3 604.001 1063.65 604.335 1063.83 604.736 1063.83 605.205 1063.83 605.673 1063.65 606.075 1063.3 606.408 1062.95 606.742 1062.53 606.909 1062.04 606.909ZM1069.79 616.156V626H1067.28V609.636H1069.71V612.193H1069.92C1070.3 611.362 1070.89 610.695 1071.67 610.19 1072.45 609.679 1073.46 609.423 1074.69 609.423 1075.8 609.423 1076.77 609.651 1077.6 610.105 1078.43 610.553 1079.08 611.234 1079.54 612.151 1080 613.06 1080.23 614.21 1080.23 615.602V626H1077.72V615.773C1077.72 614.487 1077.39 613.486 1076.72 612.768 1076.05 612.044 1075.13 611.682 1073.97 611.682 1073.17 611.682 1072.45 611.856 1071.82 612.204 1071.19 612.552 1070.7 613.06 1070.34 613.727 1069.97 614.395 1069.79 615.205 1069.79 616.156ZM1099.18 609.636V611.767H1090.7V609.636H1099.18ZM1093.17 605.716H1095.69V621.312C1095.69 622.023 1095.79 622.555 1096 622.911 1096.21 623.259 1096.48 623.493 1096.81 623.614 1097.14 623.727 1097.49 623.784 1097.86 623.784 1098.14 623.784 1098.36 623.77 1098.54 623.741 1098.72 623.706 1098.86 623.678 1098.97 623.656L1099.48 625.915C1099.31 625.979 1099.07 626.043 1098.77 626.107 1098.46 626.178 1098.07 626.213 1097.6 626.213 1096.89 626.213 1096.2 626.06 1095.52 625.755 1094.84 625.45 1094.28 624.984 1093.83 624.359 1093.39 623.734 1093.17 622.946 1093.17 621.994V605.716ZM1109.05 626.341C1107.47 626.341 1106.11 625.993 1104.97 625.297 1103.83 624.594 1102.95 623.614 1102.34 622.357 1101.73 621.092 1101.42 619.622 1101.42 617.946 1101.42 616.27 1101.73 614.793 1102.34 613.514 1102.95 612.229 1103.81 611.227 1104.92 610.51 1106.02 609.786 1107.32 609.423 1108.79 609.423 1109.65 609.423 1110.49 609.565 1111.32 609.849 1112.15 610.134 1112.91 610.595 1113.59 611.234 1114.27 611.866 1114.81 612.705 1115.22 613.749 1115.62 614.793 1115.82 616.078 1115.82 617.605V618.67H1103.21V616.497H1113.27C1113.27 615.574 1113.08 614.75 1112.71 614.026 1112.35 613.301 1111.83 612.729 1111.16 612.31 1110.49 611.891 1109.7 611.682 1108.79 611.682 1107.79 611.682 1106.93 611.93 1106.19 612.428 1105.47 612.918 1104.91 613.557 1104.52 614.345 1104.13 615.134 1103.94 615.979 1103.94 616.881V618.33C1103.94 619.565 1104.15 620.613 1104.57 621.472 1105.01 622.325 1105.61 622.974 1106.37 623.422 1107.14 623.862 1108.03 624.082 1109.05 624.082 1109.71 624.082 1110.31 623.99 1110.84 623.805 1111.38 623.614 1111.84 623.33 1112.23 622.953 1112.62 622.57 1112.93 622.094 1113.14 621.526L1115.57 622.207C1115.31 623.031 1114.88 623.756 1114.28 624.381 1113.68 624.999 1112.93 625.482 1112.04 625.83 1111.15 626.17 1110.16 626.341 1109.05 626.341ZM1120.48 609.636 1124.4 616.327 1128.33 609.636H1131.22L1125.94 617.818 1131.22 626H1128.33L1124.4 619.651 1120.48 626H1117.59L1122.79 617.818 1117.59 609.636H1120.48ZM1141.33 609.636V611.767H1132.85V609.636H1141.33ZM1135.32 605.716H1137.83V621.312C1137.83 622.023 1137.94 622.555 1138.14 622.911 1138.35 623.259 1138.62 623.493 1138.95 623.614 1139.29 623.727 1139.64 623.784 1140.01 623.784 1140.28 623.784 1140.51 623.77 1140.69 623.741 1140.87 623.706 1141.01 623.678 1141.11 623.656L1141.63 625.915C1141.45 625.979 1141.22 626.043 1140.91 626.107 1140.61 626.178 1140.22 626.213 1139.75 626.213 1139.04 626.213 1138.34 626.06 1137.66 625.755 1136.99 625.45 1136.43 624.984 1135.98 624.359 1135.54 623.734 1135.32 622.946 1135.32 621.994V605.716Z"/><path d="M59.8342 626V604.182H67.2064C68.918 604.182 70.3172 604.491 71.4038 605.109 72.4976 605.719 73.3072 606.547 73.8328 607.591 74.3584 608.635 74.6212 609.8 74.6212 611.085 74.6212 612.371 74.3584 613.539 73.8328 614.59 73.3143 615.641 72.5118 616.479 71.4251 617.104 70.3385 617.722 68.9464 618.031 67.249 618.031H61.9649V615.688H67.1638C68.3357 615.688 69.2767 615.485 69.9869 615.08 70.6972 614.675 71.2121 614.129 71.5317 613.44 71.8584 612.744 72.0217 611.959 72.0217 611.085 72.0217 610.212 71.8584 609.43 71.5317 608.741 71.2121 608.053 70.6936 607.513 69.9763 607.122 69.259 606.724 68.3072 606.526 67.1212 606.526H62.4763V626H59.8342ZM80.4505 604.182V626H77.9363V604.182H80.4505ZM89.2708 626.384C88.2338 626.384 87.2928 626.188 86.4476 625.798 85.6025 625.4 84.9313 624.828 84.4341 624.082 83.937 623.33 83.6884 622.42 83.6884 621.355 83.6884 620.418 83.873 619.658 84.2424 619.075 84.6117 618.486 85.1053 618.024 85.7232 617.69 86.3411 617.357 87.0229 617.108 87.7686 616.945 88.5215 616.774 89.2779 616.639 90.0378 616.54 91.0321 616.412 91.8382 616.316 92.4561 616.252 93.0811 616.181 93.5357 616.064 93.8198 615.901 94.111 615.737 94.2566 615.453 94.2566 615.048V614.963C94.2566 613.912 93.9689 613.095 93.3936 612.513 92.8255 611.93 91.9625 611.639 90.8049 611.639 89.6046 611.639 88.6635 611.902 87.9817 612.428 87.2999 612.953 86.8205 613.514 86.5435 614.111L84.1571 613.259C84.5833 612.264 85.1515 611.49 85.8617 610.936 86.579 610.375 87.3603 609.984 88.2054 609.764 89.0577 609.537 89.8958 609.423 90.7196 609.423 91.2452 609.423 91.8489 609.487 92.5307 609.615 93.2196 609.736 93.8837 609.988 94.5229 610.371 95.1692 610.755 95.7054 611.334 96.1316 612.108 96.5577 612.882 96.7708 613.919 96.7708 615.219V626H94.2566V623.784H94.1287C93.9583 624.139 93.6742 624.519 93.2765 624.924 92.8787 625.329 92.3496 625.673 91.6891 625.957 91.0286 626.241 90.2225 626.384 89.2708 626.384ZM89.6543 624.125C90.6486 624.125 91.4867 623.93 92.1685 623.539 92.8574 623.148 93.3759 622.644 93.7239 622.026 94.079 621.408 94.2566 620.759 94.2566 620.077V617.776C94.15 617.903 93.9157 618.021 93.5534 618.127 93.1983 618.227 92.7864 618.315 92.3176 618.393 91.856 618.464 91.405 618.528 90.9647 618.585 90.5314 618.635 90.1799 618.678 89.91 618.713 89.2566 618.798 88.6458 618.937 88.0776 619.129 87.5165 619.313 87.062 619.594 86.714 619.97 86.373 620.339 86.2026 620.844 86.2026 621.483 86.2026 622.357 86.5257 623.017 87.1721 623.464 87.8255 623.905 88.6529 624.125 89.6543 624.125ZM100.76 626V609.636H103.274V626H100.76ZM102.038 606.909C101.548 606.909 101.125 606.742 100.77 606.408 100.422 606.075 100.248 605.673 100.248 605.205 100.248 604.736 100.422 604.335 100.77 604.001 101.125 603.667 101.548 603.5 102.038 603.5 102.528 603.5 102.947 603.667 103.295 604.001 103.65 604.335 103.828 604.736 103.828 605.205 103.828 605.673 103.65 606.075 103.295 606.408 102.947 606.742 102.528 606.909 102.038 606.909ZM109.793 616.156V626H107.279V609.636H109.708V612.193H109.921C110.304 611.362 110.887 610.695 111.668 610.19 112.449 609.679 113.458 609.423 114.694 609.423 115.802 609.423 116.771 609.651 117.602 610.105 118.433 610.553 119.079 611.234 119.541 612.151 120.003 613.06 120.233 614.21 120.233 615.602V626H117.719V615.773C117.719 614.487 117.385 613.486 116.718 612.768 116.05 612.044 115.134 611.682 113.969 611.682 113.167 611.682 112.449 611.856 111.817 612.204 111.192 612.552 110.699 613.06 110.336 613.727 109.974 614.395 109.793 615.205 109.793 616.156ZM139.182 609.636V611.767H130.702V609.636H139.182ZM133.173 605.716H135.687V621.312C135.687 622.023 135.79 622.555 135.996 622.911 136.209 623.259 136.479 623.493 136.806 623.614 137.14 623.727 137.491 623.784 137.861 623.784 138.138 623.784 138.365 623.77 138.542 623.741 138.72 623.706 138.862 623.678 138.969 623.656L139.48 625.915C139.31 625.979 139.072 626.043 138.766 626.107 138.461 626.178 138.074 626.213 137.605 626.213 136.895 626.213 136.199 626.06 135.517 625.755 134.842 625.45 134.281 624.984 133.834 624.359 133.393 623.734 133.173 622.946 133.173 621.994V605.716ZM149.049 626.341C147.472 626.341 146.112 625.993 144.968 625.297 143.832 624.594 142.955 623.614 142.337 622.357 141.726 621.092 141.421 619.622 141.421 617.946 141.421 616.27 141.726 614.793 142.337 613.514 142.955 612.229 143.814 611.227 144.915 610.51 146.023 609.786 147.316 609.423 148.793 609.423 149.645 609.423 150.487 609.565 151.318 609.849 152.149 610.134 152.905 610.595 153.587 611.234 154.269 611.866 154.812 612.705 155.217 613.749 155.622 614.793 155.824 616.078 155.824 617.605V618.67H143.211V616.497H153.267C153.267 615.574 153.083 614.75 152.713 614.026 152.351 613.301 151.833 612.729 151.158 612.31 150.49 611.891 149.702 611.682 148.793 611.682 147.792 611.682 146.925 611.93 146.194 612.428 145.469 612.918 144.912 613.557 144.521 614.345 144.13 615.134 143.935 615.979 143.935 616.881V618.33C143.935 619.565 144.148 620.613 144.574 621.472 145.007 622.325 145.608 622.974 146.375 623.422 147.142 623.862 148.033 624.082 149.049 624.082 149.709 624.082 150.306 623.99 150.838 623.805 151.378 623.614 151.843 623.33 152.234 622.953 152.625 622.57 152.926 622.094 153.14 621.526L155.569 622.207C155.313 623.031 154.883 623.756 154.279 624.381 153.676 624.999 152.93 625.482 152.042 625.83 151.154 626.17 150.157 626.341 149.049 626.341ZM160.484 609.636 164.405 616.327 168.325 609.636H171.223L165.939 617.818 171.223 626H168.325L164.405 619.651 160.484 626H157.587L162.785 617.818 157.587 609.636H160.484ZM181.327 609.636V611.767H172.847V609.636H181.327ZM175.318 605.716H177.833V621.312C177.833 622.023 177.936 622.555 178.142 622.911 178.355 623.259 178.625 623.493 178.951 623.614 179.285 623.727 179.637 623.784 180.006 623.784 180.283 623.784 180.51 623.77 180.688 623.741 180.865 623.706 181.007 623.678 181.114 623.656L181.625 625.915C181.455 625.979 181.217 626.043 180.912 626.107 180.606 626.178 180.219 626.213 179.75 626.213 179.04 626.213 178.344 626.06 177.662 625.755 176.988 625.45 176.426 624.984 175.979 624.359 175.539 623.734 175.318 622.946 175.318 621.994V605.716Z"/><path d="M278.67 808V786.182H291.838V788.526H281.312V795.898H291.156V798.241H281.312V805.656H292.008V808H278.67ZM298.173 798.156V808H295.659V791.636H298.088V794.193H298.301C298.685 793.362 299.267 792.695 300.048 792.19 300.829 791.679 301.838 791.423 303.074 791.423 304.182 791.423 305.151 791.651 305.982 792.105 306.813 792.553 307.459 793.234 307.921 794.151 308.383 795.06 308.613 796.21 308.613 797.602V808H306.099V797.773C306.099 796.487 305.765 795.486 305.098 794.768 304.43 794.044 303.514 793.682 302.349 793.682 301.547 793.682 300.829 793.856 300.197 794.204 299.572 794.552 299.079 795.06 298.716 795.727 298.354 796.395 298.173 797.205 298.173 798.156ZM319.256 808.341C317.721 808.341 316.4 807.979 315.292 807.254 314.184 806.53 313.332 805.532 312.736 804.261 312.139 802.989 311.841 801.537 311.841 799.903 311.841 798.241 312.146 796.775 312.757 795.504 313.375 794.225 314.234 793.227 315.335 792.51 316.443 791.786 317.736 791.423 319.213 791.423 320.363 791.423 321.4 791.636 322.324 792.062 323.247 792.489 324.003 793.085 324.593 793.852 325.182 794.619 325.548 795.514 325.69 796.537H323.176C322.984 795.791 322.558 795.131 321.898 794.555 321.244 793.973 320.363 793.682 319.256 793.682 318.275 793.682 317.416 793.937 316.677 794.449 315.946 794.953 315.374 795.667 314.962 796.59 314.557 797.506 314.355 798.582 314.355 799.818 314.355 801.082 314.554 802.183 314.952 803.121 315.356 804.058 315.925 804.786 316.656 805.305 317.395 805.823 318.261 806.082 319.256 806.082 319.909 806.082 320.502 805.969 321.035 805.741 321.567 805.514 322.018 805.188 322.388 804.761 322.757 804.335 323.02 803.824 323.176 803.227H325.69C325.548 804.193 325.197 805.063 324.635 805.837 324.081 806.604 323.346 807.215 322.43 807.67 321.521 808.117 320.463 808.341 319.256 808.341ZM328.766 808V791.636H331.195V794.108H331.365C331.663 793.298 332.203 792.641 332.984 792.137 333.766 791.633 334.646 791.381 335.626 791.381 335.811 791.381 336.042 791.384 336.319 791.391 336.596 791.398 336.805 791.409 336.947 791.423V793.98C336.862 793.959 336.667 793.927 336.361 793.884 336.063 793.835 335.747 793.81 335.413 793.81 334.618 793.81 333.908 793.977 333.283 794.31 332.665 794.637 332.175 795.092 331.812 795.674 331.457 796.249 331.28 796.906 331.28 797.645V808H328.766ZM341.445 814.136C341.019 814.136 340.639 814.101 340.305 814.03 339.971 813.966 339.741 813.902 339.613 813.838L340.252 811.622C340.863 811.778 341.402 811.835 341.871 811.793 342.34 811.75 342.755 811.54 343.118 811.164 343.487 810.795 343.824 810.195 344.13 809.364L344.598 808.085 338.547 791.636H341.275L345.792 804.676H345.962L350.479 791.636H353.206L346.26 810.386C345.948 811.232 345.561 811.931 345.099 812.485 344.638 813.046 344.101 813.462 343.491 813.732 342.887 814.001 342.205 814.136 341.445 814.136ZM355.925 814.136V791.636H358.354V794.236H358.652C358.837 793.952 359.093 793.589 359.419 793.149 359.753 792.702 360.229 792.304 360.847 791.956 361.472 791.601 362.317 791.423 363.382 791.423 364.76 791.423 365.975 791.768 367.026 792.457 368.077 793.146 368.897 794.122 369.487 795.386 370.076 796.651 370.371 798.142 370.371 799.861 370.371 801.594 370.076 803.096 369.487 804.367 368.897 805.631 368.081 806.612 367.036 807.308 365.992 807.996 364.789 808.341 363.425 808.341 362.374 808.341 361.532 808.167 360.9 807.819 360.268 807.464 359.781 807.062 359.441 806.615 359.1 806.161 358.837 805.784 358.652 805.486H358.439V814.136H355.925ZM358.397 799.818C358.397 801.054 358.578 802.144 358.94 803.089 359.302 804.026 359.831 804.761 360.527 805.294 361.223 805.82 362.076 806.082 363.084 806.082 364.135 806.082 365.012 805.805 365.715 805.251 366.426 804.69 366.958 803.937 367.313 802.993 367.676 802.041 367.857 800.983 367.857 799.818 367.857 798.668 367.679 797.631 367.324 796.707 366.976 795.777 366.447 795.042 365.737 794.502 365.034 793.955 364.149 793.682 363.084 793.682 362.061 793.682 361.202 793.941 360.506 794.46 359.81 794.971 359.284 795.688 358.929 796.612 358.574 797.528 358.397 798.597 358.397 799.818ZM380.723 791.636V793.767H372.243V791.636H380.723ZM374.714 787.716H377.228V803.312C377.228 804.023 377.331 804.555 377.537 804.911 377.75 805.259 378.02 805.493 378.347 805.614 378.681 805.727 379.032 805.784 379.402 805.784 379.679 805.784 379.906 805.77 380.083 805.741 380.261 805.706 380.403 805.678 380.51 805.656L381.021 807.915C380.851 807.979 380.613 808.043 380.307 808.107 380.002 808.178 379.615 808.213 379.146 808.213 378.436 808.213 377.74 808.06 377.058 807.755 376.383 807.45 375.822 806.984 375.375 806.359 374.934 805.734 374.714 804.946 374.714 803.994V787.716ZM383.905 808V791.636H386.419V808H383.905ZM385.183 788.909C384.693 788.909 384.27 788.742 383.915 788.408 383.567 788.075 383.393 787.673 383.393 787.205 383.393 786.736 383.567 786.335 383.915 786.001 384.27 785.667 384.693 785.5 385.183 785.5 385.673 785.5 386.092 785.667 386.44 786.001 386.795 786.335 386.973 786.736 386.973 787.205 386.973 787.673 386.795 788.075 386.44 788.408 386.092 788.742 385.673 788.909 385.183 788.909ZM397.072 808.341C395.594 808.341 394.298 807.989 393.183 807.286 392.075 806.583 391.209 805.599 390.584 804.335 389.966 803.071 389.657 801.594 389.657 799.903 389.657 798.199 389.966 796.711 390.584 795.44 391.209 794.168 392.075 793.181 393.183 792.478 394.298 791.775 395.594 791.423 397.072 791.423 398.549 791.423 399.841 791.775 400.949 792.478 402.064 793.181 402.931 794.168 403.549 795.44 404.174 796.711 404.486 798.199 404.486 799.903 404.486 801.594 404.174 803.071 403.549 804.335 402.931 805.599 402.064 806.583 400.949 807.286 399.841 807.989 398.549 808.341 397.072 808.341ZM397.072 806.082C398.194 806.082 399.117 805.795 399.841 805.219 400.566 804.644 401.102 803.888 401.45 802.95 401.798 802.013 401.972 800.997 401.972 799.903 401.972 798.81 401.798 797.79 401.45 796.846 401.102 795.901 400.566 795.138 399.841 794.555 399.117 793.973 398.194 793.682 397.072 793.682 395.949 793.682 395.026 793.973 394.302 794.555 393.577 795.138 393.041 795.901 392.693 796.846 392.345 797.79 392.171 798.81 392.171 799.903 392.171 800.997 392.345 802.013 392.693 802.95 393.041 803.888 393.577 804.644 394.302 805.219 395.026 805.795 395.949 806.082 397.072 806.082ZM410.238 798.156V808H407.724V791.636H410.153V794.193H410.366C410.75 793.362 411.332 792.695 412.113 792.19 412.895 791.679 413.903 791.423 415.139 791.423 416.247 791.423 417.216 791.651 418.047 792.105 418.878 792.553 419.525 793.234 419.986 794.151 420.448 795.06 420.679 796.21 420.679 797.602V808H418.165V797.773C418.165 796.487 417.831 795.486 417.163 794.768 416.495 794.044 415.579 793.682 414.415 793.682 413.612 793.682 412.895 793.856 412.263 794.204 411.638 794.552 411.144 795.06 410.782 795.727 410.419 796.395 410.238 797.205 410.238 798.156Z"/><path d="M782.631 808H775.898V786.182H782.929C785.045 786.182 786.857 786.619 788.362 787.492 789.868 788.359 791.022 789.605 791.825 791.232 792.627 792.851 793.028 794.79 793.028 797.048 793.028 799.321 792.624 801.278 791.814 802.918 791.004 804.552 789.825 805.809 788.277 806.69 786.729 807.563 784.847 808 782.631 808ZM778.54 805.656H782.46C784.264 805.656 785.759 805.308 786.945 804.612 788.131 803.916 789.016 802.925 789.598 801.64 790.18 800.354 790.472 798.824 790.472 797.048 790.472 795.287 790.184 793.771 789.609 792.499 789.033 791.221 788.174 790.241 787.031 789.559 785.887 788.87 784.463 788.526 782.759 788.526H778.54V805.656ZM803.38 808.341C801.803 808.341 800.443 807.993 799.3 807.297 798.163 806.594 797.286 805.614 796.668 804.357 796.058 803.092 795.752 801.622 795.752 799.946 795.752 798.27 796.058 796.793 796.668 795.514 797.286 794.229 798.146 793.227 799.247 792.51 800.355 791.786 801.647 791.423 803.124 791.423 803.977 791.423 804.818 791.565 805.649 791.849 806.48 792.134 807.237 792.595 807.918 793.234 808.6 793.866 809.144 794.705 809.548 795.749 809.953 796.793 810.156 798.078 810.156 799.605V800.67H797.542V798.497H807.599C807.599 797.574 807.414 796.75 807.045 796.026 806.683 795.301 806.164 794.729 805.489 794.31 804.822 793.891 804.034 793.682 803.124 793.682 802.123 793.682 801.257 793.93 800.525 794.428 799.801 794.918 799.243 795.557 798.852 796.345 798.462 797.134 798.266 797.979 798.266 798.881V800.33C798.266 801.565 798.48 802.613 798.906 803.472 799.339 804.325 799.939 804.974 800.706 805.422 801.473 805.862 802.364 806.082 803.38 806.082 804.041 806.082 804.637 805.99 805.17 805.805 805.71 805.614 806.175 805.33 806.565 804.953 806.956 804.57 807.258 804.094 807.471 803.526L809.9 804.207C809.644 805.031 809.215 805.756 808.611 806.381 808.007 806.999 807.261 807.482 806.374 807.83 805.486 808.17 804.488 808.341 803.38 808.341ZM820.028 808.341C818.494 808.341 817.173 807.979 816.065 807.254 814.957 806.53 814.105 805.532 813.508 804.261 812.911 802.989 812.613 801.537 812.613 799.903 812.613 798.241 812.919 796.775 813.529 795.504 814.147 794.225 815.007 793.227 816.108 792.51 817.215 791.786 818.508 791.423 819.985 791.423 821.136 791.423 822.173 791.636 823.096 792.062 824.019 792.489 824.776 793.085 825.365 793.852 825.955 794.619 826.321 795.514 826.463 796.537H823.948C823.757 795.791 823.331 795.131 822.67 794.555 822.017 793.973 821.136 793.682 820.028 793.682 819.048 793.682 818.188 793.937 817.45 794.449 816.718 794.953 816.147 795.667 815.735 796.59 815.33 797.506 815.127 798.582 815.127 799.818 815.127 801.082 815.326 802.183 815.724 803.121 816.129 804.058 816.697 804.786 817.429 805.305 818.167 805.823 819.034 806.082 820.028 806.082 820.681 806.082 821.274 805.969 821.807 805.741 822.34 805.514 822.791 805.188 823.16 804.761 823.529 804.335 823.792 803.824 823.948 803.227H826.463C826.321 804.193 825.969 805.063 825.408 805.837 824.854 806.604 824.119 807.215 823.203 807.67 822.294 808.117 821.235 808.341 820.028 808.341ZM829.538 808V791.636H831.967V794.108H832.137C832.436 793.298 832.976 792.641 833.757 792.137 834.538 791.633 835.419 791.381 836.399 791.381 836.584 791.381 836.814 791.384 837.091 791.391 837.368 791.398 837.578 791.409 837.72 791.423V793.98C837.635 793.959 837.439 793.927 837.134 793.884 836.836 793.835 836.52 793.81 836.186 793.81 835.39 793.81 834.68 793.977 834.055 794.31 833.437 794.637 832.947 795.092 832.585 795.674 832.23 796.249 832.052 796.906 832.052 797.645V808H829.538ZM842.218 814.136C841.791 814.136 841.411 814.101 841.078 814.03 840.744 813.966 840.513 813.902 840.385 813.838L841.024 811.622C841.635 811.778 842.175 811.835 842.644 811.793 843.112 811.75 843.528 811.54 843.89 811.164 844.259 810.795 844.597 810.195 844.902 809.364L845.371 808.085 839.32 791.636H842.047L846.564 804.676H846.735L851.252 791.636H853.979L847.033 810.386C846.72 811.232 846.333 811.931 845.872 812.485 845.41 813.046 844.874 813.462 844.263 813.732 843.659 814.001 842.977 814.136 842.218 814.136ZM856.697 814.136V791.636H859.126V794.236H859.425C859.609 793.952 859.865 793.589 860.192 793.149 860.526 792.702 861.001 792.304 861.619 791.956 862.244 791.601 863.089 791.423 864.155 791.423 865.533 791.423 866.747 791.768 867.798 792.457 868.849 793.146 869.67 794.122 870.259 795.386 870.849 796.651 871.143 798.142 871.143 799.861 871.143 801.594 870.849 803.096 870.259 804.367 869.67 805.631 868.853 806.612 867.809 807.308 866.765 807.996 865.561 808.341 864.197 808.341 863.146 808.341 862.305 808.167 861.673 807.819 861.04 807.464 860.554 807.062 860.213 806.615 859.872 806.161 859.609 805.784 859.425 805.486H859.212V814.136H856.697ZM859.169 799.818C859.169 801.054 859.35 802.144 859.712 803.089 860.075 804.026 860.604 804.761 861.3 805.294 861.996 805.82 862.848 806.082 863.857 806.082 864.908 806.082 865.785 805.805 866.488 805.251 867.198 804.69 867.731 803.937 868.086 802.993 868.448 802.041 868.629 800.983 868.629 799.818 868.629 798.668 868.452 797.631 868.097 796.707 867.749 795.777 867.219 795.042 866.509 794.502 865.806 793.955 864.922 793.682 863.857 793.682 862.834 793.682 861.974 793.941 861.278 794.46 860.582 794.971 860.057 795.688 859.702 796.612 859.347 797.528 859.169 798.597 859.169 799.818ZM881.495 791.636V793.767H873.015V791.636H881.495ZM875.487 787.716H878.001V803.312C878.001 804.023 878.104 804.555 878.31 804.911 878.523 805.259 878.793 805.493 879.119 805.614 879.453 805.727 879.805 805.784 880.174 805.784 880.451 805.784 880.678 805.77 880.856 805.741 881.034 805.706 881.176 805.678 881.282 805.656L881.793 807.915C881.623 807.979 881.385 808.043 881.08 808.107 880.774 808.178 880.387 808.213 879.918 808.213 879.208 808.213 878.512 808.06 877.83 807.755 877.156 807.45 876.595 806.984 876.147 806.359 875.707 805.734 875.487 804.946 875.487 803.994V787.716ZM884.677 808V791.636H887.191V808H884.677ZM885.956 788.909C885.465 788.909 885.043 788.742 884.688 788.408 884.34 788.075 884.166 787.673 884.166 787.205 884.166 786.736 884.34 786.335 884.688 786.001 885.043 785.667 885.465 785.5 885.956 785.5 886.446 785.5 886.865 785.667 887.213 786.001 887.568 786.335 887.745 786.736 887.745 787.205 887.745 787.673 887.568 788.075 887.213 788.408 886.865 788.742 886.446 788.909 885.956 788.909ZM897.844 808.341C896.367 808.341 895.071 807.989 893.955 807.286 892.848 806.583 891.981 805.599 891.356 804.335 890.738 803.071 890.429 801.594 890.429 799.903 890.429 798.199 890.738 796.711 891.356 795.44 891.981 794.168 892.848 793.181 893.955 792.478 895.071 791.775 896.367 791.423 897.844 791.423 899.321 791.423 900.614 791.775 901.722 792.478 902.837 793.181 903.703 794.168 904.321 795.44 904.946 796.711 905.259 798.199 905.259 799.903 905.259 801.594 904.946 803.071 904.321 804.335 903.703 805.599 902.837 806.583 901.722 807.286 900.614 807.989 899.321 808.341 897.844 808.341ZM897.844 806.082C898.966 806.082 899.889 805.795 900.614 805.219 901.338 804.644 901.875 803.888 902.223 802.95 902.571 802.013 902.745 800.997 902.745 799.903 902.745 798.81 902.571 797.79 902.223 796.846 901.875 795.901 901.338 795.138 900.614 794.555 899.889 793.973 898.966 793.682 897.844 793.682 896.722 793.682 895.799 793.973 895.074 794.555 894.35 795.138 893.813 795.901 893.465 796.846 893.117 797.79 892.943 798.81 892.943 799.903 892.943 800.997 893.117 802.013 893.465 802.95 893.813 803.888 894.35 804.644 895.074 805.219 895.799 805.795 896.722 806.082 897.844 806.082ZM911.011 798.156V808H908.497V791.636H910.926V794.193H911.139C911.522 793.362 912.105 792.695 912.886 792.19 913.667 791.679 914.676 791.423 915.911 791.423 917.019 791.423 917.989 791.651 918.82 792.105 919.651 792.553 920.297 793.234 920.759 794.151 921.22 795.06 921.451 796.21 921.451 797.602V808H918.937V797.773C918.937 796.487 918.603 795.486 917.936 794.768 917.268 794.044 916.352 793.682 915.187 793.682 914.384 793.682 913.667 793.856 913.035 794.204 912.41 794.552 911.916 795.06 911.554 795.727 911.192 796.395 911.011 797.205 911.011 798.156Z"/><path d="M545.677 793H543.035C542.879 792.24 542.605 791.572 542.215 790.997 541.831 790.422 541.363 789.939 540.809 789.548 540.262 789.151 539.654 788.852 538.987 788.653 538.319 788.455 537.623 788.355 536.899 788.355 535.578 788.355 534.381 788.689 533.309 789.357 532.243 790.024 531.395 791.008 530.762 792.308 530.137 793.607 529.825 795.202 529.825 797.091 529.825 798.98 530.137 800.575 530.762 801.874 531.395 803.174 532.243 804.158 533.309 804.825 534.381 805.493 535.578 805.827 536.899 805.827 537.623 805.827 538.319 805.727 538.987 805.528 539.654 805.33 540.262 805.035 540.809 804.644 541.363 804.246 541.831 803.76 542.215 803.185 542.605 802.602 542.879 801.935 543.035 801.182H545.677C545.478 802.297 545.116 803.295 544.591 804.175 544.065 805.056 543.412 805.805 542.63 806.423 541.849 807.034 540.972 807.499 539.999 807.819 539.033 808.138 538 808.298 536.899 808.298 535.038 808.298 533.383 807.844 531.934 806.935 530.485 806.026 529.346 804.733 528.515 803.057 527.684 801.381 527.268 799.392 527.268 797.091 527.268 794.79 527.684 792.801 528.515 791.125 529.346 789.449 530.485 788.156 531.934 787.247 533.383 786.338 535.038 785.884 536.899 785.884 538 785.884 539.033 786.043 539.999 786.363 540.972 786.683 541.849 787.151 542.63 787.769 543.412 788.38 544.065 789.126 544.591 790.006 545.116 790.88 545.478 791.878 545.677 793ZM549.006 808V791.636H551.52V808H549.006ZM550.284 788.909C549.794 788.909 549.371 788.742 549.016 788.408 548.668 788.075 548.494 787.673 548.494 787.205 548.494 786.736 548.668 786.335 549.016 786.001 549.371 785.667 549.794 785.5 550.284 785.5 550.774 785.5 551.193 785.667 551.541 786.001 551.896 786.335 552.074 786.736 552.074 787.205 552.074 787.673 551.896 788.075 551.541 788.408 551.193 788.742 550.774 788.909 550.284 788.909ZM555.525 814.136V791.636H557.954V794.236H558.252C558.437 793.952 558.692 793.589 559.019 793.149 559.353 792.702 559.829 792.304 560.447 791.956 561.072 791.601 561.917 791.423 562.982 791.423 564.36 791.423 565.574 791.768 566.626 792.457 567.677 793.146 568.497 794.122 569.087 795.386 569.676 796.651 569.971 798.142 569.971 799.861 569.971 801.594 569.676 803.096 569.087 804.367 568.497 805.631 567.68 806.612 566.636 807.308 565.592 807.996 564.388 808.341 563.025 808.341 561.974 808.341 561.132 808.167 560.5 807.819 559.868 807.464 559.381 807.062 559.04 806.615 558.699 806.161 558.437 805.784 558.252 805.486H558.039V814.136H555.525ZM557.996 799.818C557.996 801.054 558.177 802.144 558.54 803.089 558.902 804.026 559.431 804.761 560.127 805.294 560.823 805.82 561.675 806.082 562.684 806.082 563.735 806.082 564.612 805.805 565.315 805.251 566.025 804.69 566.558 803.937 566.913 802.993 567.275 802.041 567.457 800.983 567.457 799.818 567.457 798.668 567.279 797.631 566.924 796.707 566.576 795.777 566.047 795.042 565.337 794.502 564.633 793.955 563.749 793.682 562.684 793.682 561.661 793.682 560.802 793.941 560.106 794.46 559.41 794.971 558.884 795.688 558.529 796.612 558.174 797.528 557.996 798.597 557.996 799.818ZM575.72 798.156V808H573.206V786.182H575.72V794.193H575.933C576.317 793.348 576.892 792.677 577.659 792.18 578.433 791.675 579.463 791.423 580.749 791.423 581.864 791.423 582.84 791.647 583.678 792.094 584.516 792.535 585.166 793.213 585.628 794.129 586.097 795.038 586.331 796.196 586.331 797.602V808H583.817V797.773C583.817 796.473 583.479 795.468 582.805 794.758 582.137 794.04 581.21 793.682 580.024 793.682 579.2 793.682 578.462 793.856 577.808 794.204 577.162 794.552 576.651 795.06 576.274 795.727 575.905 796.395 575.72 797.205 575.72 798.156ZM597.191 808.341C595.615 808.341 594.255 807.993 593.111 807.297 591.975 806.594 591.098 805.614 590.48 804.357 589.869 803.092 589.564 801.622 589.564 799.946 589.564 798.27 589.869 796.793 590.48 795.514 591.098 794.229 591.957 793.227 593.058 792.51 594.166 791.786 595.458 791.423 596.936 791.423 597.788 791.423 598.63 791.565 599.461 791.849 600.292 792.134 601.048 792.595 601.73 793.234 602.412 793.866 602.955 794.705 603.36 795.749 603.765 796.793 603.967 798.078 603.967 799.605V800.67H591.353V798.497H601.41C601.41 797.574 601.226 796.75 600.856 796.026 600.494 795.301 599.976 794.729 599.301 794.31 598.633 793.891 597.845 793.682 596.936 793.682 595.934 793.682 595.068 793.93 594.336 794.428 593.612 794.918 593.054 795.557 592.664 796.345 592.273 797.134 592.078 797.979 592.078 798.881V800.33C592.078 801.565 592.291 802.613 592.717 803.472 593.15 804.325 593.75 804.974 594.517 805.422 595.284 805.862 596.176 806.082 597.191 806.082 597.852 806.082 598.449 805.99 598.981 805.805 599.521 805.614 599.986 805.33 600.377 804.953 600.767 804.57 601.069 804.094 601.282 803.526L603.711 804.207C603.456 805.031 603.026 805.756 602.422 806.381 601.819 806.999 601.073 807.482 600.185 807.83 599.297 808.17 598.299 808.341 597.191 808.341ZM607.192 808V791.636H609.621V794.108H609.791C610.089 793.298 610.629 792.641 611.41 792.137 612.192 791.633 613.072 791.381 614.052 791.381 614.237 791.381 614.468 791.384 614.745 791.391 615.022 791.398 615.231 791.409 615.373 791.423V793.98C615.288 793.959 615.093 793.927 614.787 793.884 614.489 793.835 614.173 793.81 613.839 793.81 613.044 793.81 612.334 793.977 611.709 794.31 611.091 794.637 610.601 795.092 610.238 795.674 609.883 796.249 609.706 796.906 609.706 797.645V808H607.192ZM625.896 791.636V793.767H617.415V791.636H625.896ZM619.887 787.716H622.401V803.312C622.401 804.023 622.504 804.555 622.71 804.911 622.923 805.259 623.193 805.493 623.52 805.614 623.854 805.727 624.205 805.784 624.575 805.784 624.852 805.784 625.079 805.77 625.256 805.741 625.434 805.706 625.576 805.678 625.682 805.656L626.194 807.915C626.023 807.979 625.785 808.043 625.48 808.107 625.175 808.178 624.788 808.213 624.319 808.213 623.609 808.213 622.913 808.06 622.231 807.755 621.556 807.45 620.995 806.984 620.548 806.359 620.107 805.734 619.887 804.946 619.887 803.994V787.716ZM635.763 808.341C634.186 808.341 632.826 807.993 631.682 807.297 630.546 806.594 629.669 805.614 629.051 804.357 628.44 803.092 628.135 801.622 628.135 799.946 628.135 798.27 628.44 796.793 629.051 795.514 629.669 794.229 630.528 793.227 631.629 792.51 632.737 791.786 634.03 791.423 635.507 791.423 636.359 791.423 637.201 791.565 638.032 791.849 638.863 792.134 639.619 792.595 640.301 793.234 640.983 793.866 641.526 794.705 641.931 795.749 642.336 796.793 642.538 798.078 642.538 799.605V800.67H629.924V798.497H639.981C639.981 797.574 639.797 796.75 639.427 796.026 639.065 795.301 638.547 794.729 637.872 794.31 637.204 793.891 636.416 793.682 635.507 793.682 634.505 793.682 633.639 793.93 632.907 794.428 632.183 794.918 631.625 795.557 631.235 796.345 630.844 797.134 630.649 797.979 630.649 798.881V800.33C630.649 801.565 630.862 802.613 631.288 803.472 631.721 804.325 632.321 804.974 633.089 805.422 633.856 805.862 634.747 806.082 635.763 806.082 636.423 806.082 637.02 805.99 637.552 805.805 638.092 805.614 638.557 805.33 638.948 804.953 639.339 804.57 639.64 804.094 639.853 803.526L642.282 804.207C642.027 805.031 641.597 805.756 640.993 806.381 640.39 806.999 639.644 807.482 638.756 807.83 637.868 808.17 636.87 808.341 635.763 808.341ZM647.198 791.636 651.119 798.327 655.039 791.636H657.937L652.653 799.818 657.937 808H655.039L651.119 801.651 647.198 808H644.3L649.499 799.818 644.3 791.636H647.198ZM668.041 791.636V793.767H659.561V791.636H668.041ZM662.032 787.716H664.547V803.312C664.547 804.023 664.65 804.555 664.855 804.911 665.069 805.259 665.338 805.493 665.665 805.614 665.999 805.727 666.351 805.784 666.72 805.784 666.997 805.784 667.224 805.77 667.402 805.741 667.579 805.706 667.721 805.678 667.828 805.656L668.339 807.915C668.169 807.979 667.931 808.043 667.625 808.107 667.32 808.178 666.933 808.213 666.464 808.213 665.754 808.213 665.058 808.06 664.376 807.755 663.701 807.45 663.14 806.984 662.693 806.359 662.253 805.734 662.032 804.946 662.032 803.994V787.716Z"/><path d="M697 691.577C696.172 691.577 695.5 692.248 695.5 693.077 695.5 693.905 696.172 694.577 697 694.577L697 691.577ZM774.515 693.076 759.515 684.416 759.515 701.737 774.515 693.076ZM697 694.577 761.015 694.576 761.015 691.576 697 691.577 697 694.577Z"/><path d="M425 692.577C424.172 692.577 423.5 693.248 423.5 694.077 423.5 694.905 424.172 695.577 425 695.577L425 692.577ZM502.515 694.076 487.515 685.416 487.515 702.737 502.515 694.076ZM425 695.577 489.015 695.576 489.015 692.576 425 692.577 425 695.577Z"/><path d="M921.5 691.5C920.672 691.5 920 692.172 920 693 920 693.828 920.672 694.5 921.5 694.5V691.5ZM921.5 694.5H1010.2V691.5H921.5V694.5ZM1053.52 670.849 1056.76 665.811 1054.24 664.189 1051 669.227 1053.52 670.849ZM1010.2 694.5C1027.73 694.5 1044.05 685.589 1053.52 670.849L1051 669.227C1042.08 683.109 1026.71 691.5 1010.2 691.5V694.5Z"/><path d="M665 371.5C664.172 371.5 663.5 372.172 663.5 373 663.5 373.828 664.172 374.5 665 374.5V371.5ZM847.5 473V611H850.5V473H847.5ZM665 374.5H749V371.5H665V374.5ZM850.5 473C850.5 416.943 805.057 371.5 749 371.5V374.5C803.4 374.5 847.5 418.6 847.5 473H850.5Z"/><path d="M526.415 371.5C527.243 371.5 527.915 372.172 527.915 373 527.915 373.828 527.243 374.5 526.415 374.5V371.5ZM351.585 473V610H348.585V473H351.585ZM526.415 374.5H450.085V371.5H526.415V374.5ZM348.585 473C348.585 416.943 394.029 371.5 450.085 371.5V374.5C395.685 374.5 351.585 418.6 351.585 473H348.585Z"/></g><rect fill="#e2f1ff" height="121" rx="60.5" width="232" x="237" y="445"/><rect fill="#e2f1ff" height="121" rx="60.5" width="232" x="731" y="445"/><path d="M286.642 516V494.182H294.014C295.726 494.182 297.125 494.491 298.212 495.109 299.305 495.719 300.115 496.547 300.641 497.591 301.166 498.635 301.429 499.8 301.429 501.085 301.429 502.371 301.166 503.539 300.641 504.59 300.122 505.641 299.32 506.479 298.233 507.104 297.146 507.722 295.754 508.031 294.057 508.031H288.773V505.688H293.972C295.143 505.688 296.085 505.485 296.795 505.08 297.505 504.675 298.02 504.129 298.339 503.44 298.666 502.744 298.83 501.959 298.83 501.085 298.83 500.212 298.666 499.43 298.339 498.741 298.02 498.053 297.501 497.513 296.784 497.122 296.067 496.724 295.115 496.526 293.929 496.526H289.284V516H286.642ZM315.057 509.31V499.636H317.571V516H315.057V513.23H314.886C314.503 514.061 313.906 514.768 313.096 515.35 312.287 515.925 311.264 516.213 310.028 516.213 309.005 516.213 308.096 515.989 307.301 515.542 306.505 515.087 305.88 514.406 305.426 513.496 304.971 512.58 304.744 511.426 304.744 510.034V499.636H307.258V509.864C307.258 511.057 307.592 512.009 308.26 512.719 308.934 513.429 309.794 513.784 310.838 513.784 311.463 513.784 312.099 513.624 312.745 513.305 313.398 512.985 313.945 512.495 314.385 511.835 314.833 511.174 315.057 510.332 315.057 509.31ZM321.917 516V494.182H324.431V502.236H324.644C324.829 501.952 325.084 501.589 325.411 501.149 325.745 500.702 326.221 500.304 326.839 499.956 327.464 499.601 328.309 499.423 329.374 499.423 330.752 499.423 331.966 499.768 333.018 500.457 334.069 501.146 334.889 502.122 335.478 503.386 336.068 504.651 336.363 506.142 336.363 507.861 336.363 509.594 336.068 511.096 335.478 512.367 334.889 513.631 334.072 514.612 333.028 515.308 331.984 515.996 330.78 516.341 329.417 516.341 328.366 516.341 327.524 516.167 326.892 515.819 326.26 515.464 325.773 515.062 325.432 514.615 325.091 514.161 324.829 513.784 324.644 513.486H324.346V516H321.917ZM324.388 507.818C324.388 509.054 324.569 510.144 324.932 511.089 325.294 512.026 325.823 512.761 326.519 513.294 327.215 513.82 328.067 514.082 329.076 514.082 330.127 514.082 331.004 513.805 331.707 513.251 332.417 512.69 332.95 511.937 333.305 510.993 333.667 510.041 333.848 508.983 333.848 507.818 333.848 506.668 333.671 505.631 333.316 504.707 332.968 503.777 332.439 503.042 331.728 502.502 331.025 501.955 330.141 501.682 329.076 501.682 328.053 501.682 327.194 501.941 326.498 502.46 325.802 502.971 325.276 503.688 324.921 504.612 324.566 505.528 324.388 506.597 324.388 507.818ZM342.123 494.182V516H339.609V494.182H342.123ZM346.128 516V499.636H348.642V516H346.128ZM347.406 496.909C346.916 496.909 346.493 496.742 346.138 496.408 345.79 496.075 345.616 495.673 345.616 495.205 345.616 494.736 345.79 494.335 346.138 494.001 346.493 493.667 346.916 493.5 347.406 493.5 347.896 493.5 348.315 493.667 348.663 494.001 349.018 494.335 349.196 494.736 349.196 495.205 349.196 495.673 349.018 496.075 348.663 496.408 348.315 496.742 347.896 496.909 347.406 496.909ZM359.295 516.341C357.76 516.341 356.439 515.979 355.331 515.254 354.224 514.53 353.371 513.532 352.775 512.261 352.178 510.989 351.88 509.537 351.88 507.903 351.88 506.241 352.185 504.775 352.796 503.504 353.414 502.225 354.273 501.227 355.374 500.51 356.482 499.786 357.775 499.423 359.252 499.423 360.403 499.423 361.439 499.636 362.363 500.062 363.286 500.489 364.042 501.085 364.632 501.852 365.221 502.619 365.587 503.514 365.729 504.537H363.215C363.023 503.791 362.597 503.131 361.937 502.555 361.283 501.973 360.403 501.682 359.295 501.682 358.314 501.682 357.455 501.937 356.716 502.449 355.985 502.953 355.413 503.667 355.001 504.59 354.596 505.506 354.394 506.582 354.394 507.818 354.394 509.082 354.593 510.183 354.991 511.121 355.395 512.058 355.964 512.786 356.695 513.305 357.434 513.823 358.3 514.082 359.295 514.082 359.948 514.082 360.541 513.969 361.074 513.741 361.606 513.514 362.057 513.188 362.427 512.761 362.796 512.335 363.059 511.824 363.215 511.227H365.729C365.587 512.193 365.236 513.063 364.675 513.837 364.121 514.604 363.385 515.215 362.469 515.67 361.56 516.117 360.502 516.341 359.295 516.341ZM378.986 510.034 378.943 506.923H379.455L386.614 499.636H389.725L382.097 507.349H381.884L378.986 510.034ZM376.642 516V494.182H379.156V516H376.642ZM387.04 516 380.648 507.903 382.438 506.156 390.236 516H387.04ZM398.547 516.341C396.971 516.341 395.611 515.993 394.467 515.297 393.331 514.594 392.454 513.614 391.836 512.357 391.225 511.092 390.92 509.622 390.92 507.946 390.92 506.27 391.225 504.793 391.836 503.514 392.454 502.229 393.313 501.227 394.414 500.51 395.522 499.786 396.815 499.423 398.292 499.423 399.144 499.423 399.986 499.565 400.817 499.849 401.648 500.134 402.404 500.595 403.086 501.234 403.768 501.866 404.311 502.705 404.716 503.749 405.121 504.793 405.323 506.078 405.323 507.605V508.67H392.709V506.497H402.766C402.766 505.574 402.582 504.75 402.212 504.026 401.85 503.301 401.332 502.729 400.657 502.31 399.989 501.891 399.201 501.682 398.292 501.682 397.29 501.682 396.424 501.93 395.692 502.428 394.968 502.918 394.41 503.557 394.02 504.345 393.629 505.134 393.434 505.979 393.434 506.881V508.33C393.434 509.565 393.647 510.613 394.073 511.472 394.506 512.325 395.106 512.974 395.873 513.422 396.641 513.862 397.532 514.082 398.547 514.082 399.208 514.082 399.805 513.99 400.337 513.805 400.877 513.614 401.342 513.33 401.733 512.953 402.123 512.57 402.425 512.094 402.638 511.526L405.067 512.207C404.812 513.031 404.382 513.756 403.778 514.381 403.175 514.999 402.429 515.482 401.541 515.83 400.653 516.17 399.655 516.341 398.547 516.341ZM409.669 522.136C409.243 522.136 408.863 522.101 408.529 522.03 408.195 521.966 407.964 521.902 407.837 521.838L408.476 519.622C409.087 519.778 409.626 519.835 410.095 519.793 410.564 519.75 410.979 519.54 411.341 519.164 411.711 518.795 412.048 518.195 412.354 517.364L412.822 516.085 406.771 499.636H409.498L414.015 512.676H414.186L418.703 499.636H421.43L414.484 518.386C414.172 519.232 413.785 519.931 413.323 520.485 412.861 521.046 412.325 521.462 411.714 521.732 411.111 522.001 410.429 522.136 409.669 522.136Z" fill="#000000"/><path d="M774.963 516V494.182H782.335C784.047 494.182 785.446 494.491 786.533 495.109 787.627 495.719 788.436 496.547 788.962 497.591 789.487 498.635 789.75 499.8 789.75 501.085 789.75 502.371 789.487 503.539 788.962 504.59 788.443 505.641 787.641 506.479 786.554 507.104 785.468 507.722 784.076 508.031 782.378 508.031H777.094V505.688H782.293C783.465 505.688 784.406 505.485 785.116 505.08 785.826 504.675 786.341 504.129 786.661 503.44 786.987 502.744 787.151 501.959 787.151 501.085 787.151 500.212 786.987 499.43 786.661 498.741 786.341 498.053 785.823 497.513 785.105 497.122 784.388 496.724 783.436 496.526 782.25 496.526H777.605V516H774.963ZM793.065 516V499.636H795.494V502.108H795.665C795.963 501.298 796.503 500.641 797.284 500.137 798.065 499.633 798.946 499.381 799.926 499.381 800.111 499.381 800.342 499.384 800.619 499.391 800.896 499.398 801.105 499.409 801.247 499.423V501.98C801.162 501.959 800.967 501.927 800.661 501.884 800.363 501.835 800.047 501.81 799.713 501.81 798.918 501.81 798.207 501.977 797.582 502.31 796.965 502.637 796.474 503.092 796.112 503.674 795.757 504.249 795.58 504.906 795.58 505.645V516H793.065ZM803.628 516V499.636H806.142V516H803.628ZM804.906 496.909C804.416 496.909 803.993 496.742 803.638 496.408 803.29 496.075 803.116 495.673 803.116 495.205 803.116 494.736 803.29 494.335 803.638 494.001 803.993 493.667 804.416 493.5 804.906 493.5 805.396 493.5 805.815 493.667 806.163 494.001 806.518 494.335 806.696 494.736 806.696 495.205 806.696 495.673 806.518 496.075 806.163 496.408 805.815 496.742 805.396 496.909 804.906 496.909ZM823.527 499.636 817.476 516H814.919L808.868 499.636H811.596L816.113 512.676H816.283L820.8 499.636H823.527ZM830.563 516.384C829.526 516.384 828.585 516.188 827.74 515.798 826.895 515.4 826.224 514.828 825.727 514.082 825.229 513.33 824.981 512.42 824.981 511.355 824.981 510.418 825.165 509.658 825.535 509.075 825.904 508.486 826.398 508.024 827.016 507.69 827.633 507.357 828.315 507.108 829.061 506.945 829.814 506.774 830.57 506.639 831.33 506.54 832.325 506.412 833.131 506.316 833.749 506.252 834.374 506.181 834.828 506.064 835.112 505.901 835.403 505.737 835.549 505.453 835.549 505.048V504.963C835.549 503.912 835.261 503.095 834.686 502.513 834.118 501.93 833.255 501.639 832.097 501.639 830.897 501.639 829.956 501.902 829.274 502.428 828.592 502.953 828.113 503.514 827.836 504.111L825.45 503.259C825.876 502.264 826.444 501.49 827.154 500.936 827.871 500.375 828.653 499.984 829.498 499.764 830.35 499.537 831.188 499.423 832.012 499.423 832.538 499.423 833.141 499.487 833.823 499.615 834.512 499.736 835.176 499.988 835.815 500.371 836.462 500.755 836.998 501.334 837.424 502.108 837.85 502.882 838.063 503.919 838.063 505.219V516H835.549V513.784H835.421C835.251 514.139 834.967 514.519 834.569 514.924 834.171 515.329 833.642 515.673 832.981 515.957 832.321 516.241 831.515 516.384 830.563 516.384ZM830.947 514.125C831.941 514.125 832.779 513.93 833.461 513.539 834.15 513.148 834.668 512.644 835.016 512.026 835.371 511.408 835.549 510.759 835.549 510.077V507.776C835.442 507.903 835.208 508.021 834.846 508.127 834.491 508.227 834.079 508.315 833.61 508.393 833.148 508.464 832.697 508.528 832.257 508.585 831.824 508.635 831.472 508.678 831.202 508.713 830.549 508.798 829.938 508.937 829.37 509.129 828.809 509.313 828.354 509.594 828.006 509.97 827.665 510.339 827.495 510.844 827.495 511.483 827.495 512.357 827.818 513.017 828.464 513.464 829.118 513.905 829.945 514.125 830.947 514.125ZM849.169 499.636V501.767H840.688V499.636H849.169ZM843.16 495.716H845.674V511.312C845.674 512.023 845.777 512.555 845.983 512.911 846.196 513.259 846.466 513.493 846.793 513.614 847.127 513.727 847.478 513.784 847.848 513.784 848.125 513.784 848.352 513.77 848.529 513.741 848.707 513.706 848.849 513.678 848.956 513.656L849.467 515.915C849.296 515.979 849.059 516.043 848.753 516.107 848.448 516.178 848.061 516.213 847.592 516.213 846.882 516.213 846.186 516.06 845.504 515.755 844.829 515.45 844.268 514.984 843.821 514.359 843.38 513.734 843.16 512.946 843.16 511.994V495.716ZM859.036 516.341C857.459 516.341 856.099 515.993 854.955 515.297 853.819 514.594 852.942 513.614 852.324 512.357 851.713 511.092 851.408 509.622 851.408 507.946 851.408 506.27 851.713 504.793 852.324 503.514 852.942 502.229 853.801 501.227 854.902 500.51 856.01 499.786 857.303 499.423 858.78 499.423 859.632 499.423 860.474 499.565 861.305 499.849 862.136 500.134 862.892 500.595 863.574 501.234 864.256 501.866 864.799 502.705 865.204 503.749 865.609 504.793 865.811 506.078 865.811 507.605V508.67H853.197V506.497H863.254C863.254 505.574 863.07 504.75 862.7 504.026 862.338 503.301 861.82 502.729 861.145 502.31 860.477 501.891 859.689 501.682 858.78 501.682 857.778 501.682 856.912 501.93 856.18 502.428 855.456 502.918 854.898 503.557 854.508 504.345 854.117 505.134 853.922 505.979 853.922 506.881V508.33C853.922 509.565 854.135 510.613 854.561 511.472 854.994 512.325 855.595 512.974 856.362 513.422 857.129 513.862 858.02 514.082 859.036 514.082 859.696 514.082 860.293 513.99 860.825 513.805 861.365 513.614 861.83 513.33 862.221 512.953 862.612 512.57 862.913 512.094 863.126 511.526L865.555 512.207C865.3 513.031 864.87 513.756 864.266 514.381 863.663 514.999 862.917 515.482 862.029 515.83 861.141 516.17 860.144 516.341 859.036 516.341ZM879.217 510.034 879.174 506.923H879.686L886.845 499.636H889.956L882.328 507.349H882.115L879.217 510.034ZM876.873 516V494.182H879.387V516H876.873ZM887.271 516 880.879 507.903 882.669 506.156 890.467 516H887.271ZM898.779 516.341C897.202 516.341 895.842 515.993 894.698 515.297 893.562 514.594 892.685 513.614 892.067 512.357 891.456 511.092 891.151 509.622 891.151 507.946 891.151 506.27 891.456 504.793 892.067 503.514 892.685 502.229 893.544 501.227 894.645 500.51 895.753 499.786 897.046 499.423 898.523 499.423 899.375 499.423 900.217 499.565 901.048 499.849 901.879 500.134 902.635 500.595 903.317 501.234 903.999 501.866 904.542 502.705 904.947 503.749 905.352 504.793 905.554 506.078 905.554 507.605V508.67H892.94V506.497H902.997C902.997 505.574 902.813 504.75 902.443 504.026 902.081 503.301 901.563 502.729 900.888 502.31 900.22 501.891 899.432 501.682 898.523 501.682 897.521 501.682 896.655 501.93 895.923 502.428 895.199 502.918 894.641 503.557 894.251 504.345 893.86 505.134 893.665 505.979 893.665 506.881V508.33C893.665 509.565 893.878 510.613 894.304 511.472 894.737 512.325 895.337 512.974 896.105 513.422 896.872 513.862 897.763 514.082 898.779 514.082 899.439 514.082 900.036 513.99 900.568 513.805 901.108 513.614 901.573 513.33 901.964 512.953 902.355 512.57 902.656 512.094 902.869 511.526L905.298 512.207C905.043 513.031 904.613 513.756 904.009 514.381 903.406 514.999 902.66 515.482 901.772 515.83 900.884 516.17 899.886 516.341 898.779 516.341ZM909.9 522.136C909.474 522.136 909.094 522.101 908.76 522.03 908.426 521.966 908.195 521.902 908.068 521.838L908.707 519.622C909.318 519.778 909.857 519.835 910.326 519.793 910.795 519.75 911.21 519.54 911.573 519.164 911.942 518.795 912.279 518.195 912.585 517.364L913.053 516.085 907.002 499.636H909.729L914.247 512.676H914.417L918.934 499.636H921.661L914.715 518.386C914.403 519.232 914.016 519.931 913.554 520.485 913.092 521.046 912.556 521.462 911.945 521.732 911.342 522.001 910.66 522.136 909.9 522.136Z" fill="#000000"/><path d="M1052.29 672.881C1051.86 673.589 1050.93 673.814 1050.23 673.384 1049.52 672.953 1049.29 672.03 1049.72 671.323L1052.29 672.881ZM1057.76 661 1057.36 678.316 1042.56 669.316 1057.76 661Z" fill="#000000"/><path d="M136.817 667.422C136.308 666.768 136.425 665.826 137.078 665.317 137.732 664.808 138.674 664.925 139.183 665.578L136.817 667.422ZM143.634 673.731 142.451 674.653 143.634 673.731ZM270 694.5H183.075V691.5H270V694.5ZM142.451 674.653 136.817 667.422 139.183 665.578 144.817 672.809 142.451 674.653ZM183.075 694.5C167.198 694.5 152.209 687.177 142.451 674.653L144.817 672.809C154.007 684.603 168.123 691.5 183.075 691.5V694.5Z" fill="#000000"/><path d="M263.918 692.073C263.089 692.073 262.418 692.745 262.418 693.574 262.418 694.402 263.09 695.073 263.918 695.073L263.918 692.073ZM276.912 693.569 261.909 684.914 261.915 702.234 276.912 693.569Z" fill="#000000"/><path d="M850.585 602C850.585 601.172 849.913 600.5 849.085 600.5 848.257 600.5 847.585 601.172 847.585 602L850.585 602ZM849.085 614.994 857.745 599.994 840.425 599.994 849.085 614.994Z" fill="#000000"/><path d="M351.585 600C351.585 599.172 350.913 598.5 350.085 598.5 349.257 598.5 348.585 599.172 348.585 600L351.585 600ZM350.085 612.994 358.745 597.994 341.425 597.994 350.085 612.994Z" fill="#000000"/><g mask="url(#mask0_2222_8112)"><path clip-rule="evenodd" d="M775.189 929.972H774.328V931.079H775.189C775.558 931.079 775.927 930.956 775.927 930.464 775.927 930.095 775.558 929.972 775.189 929.972ZM774.328 933.66H773.345V928.989H775.189C776.049 928.989 776.91 929.48 776.91 930.464 776.91 931.201 776.541 931.57 776.049 931.816L777.033 933.66H775.927L775.066 931.939H774.328V933.66ZM771.624 931.324C771.624 933.168 773.099 934.644 774.943 934.644 776.787 934.644 778.262 933.168 778.262 931.324 778.262 929.48 776.787 928.005 774.943 928.005 773.099 928.005 771.624 929.48 771.624 931.324ZM770.886 931.324C770.886 929.112 772.73 927.268 774.943 927.268 777.156 927.268 779 929.112 779 931.324 779 933.537 777.156 935.381 774.943 935.381 772.73 935.381 770.886 933.66 770.886 931.324Z" fill="#151922" fill-rule="evenodd"/></g><g mask="url(#mask1_2222_8112)"><path clip-rule="evenodd" d="M579.601 963.533 563.005 938.577V963.533H555.506V927.268H564.112L579.847 950.994V927.268H587.223V963.533H579.601Z" fill="#151922" fill-rule="evenodd"/></g><g mask="url(#mask2_2222_8112)"><path clip-rule="evenodd" d="M604.188 957.509C600.746 957.509 598.041 954.928 598.041 951.117 598.041 947.429 600.746 944.847 604.065 944.847 607.507 944.847 610.212 947.429 610.212 951.117 610.335 954.928 607.63 957.509 604.188 957.509ZM604.311 938.209C596.812 938.209 590.788 943.864 590.788 951.24 590.788 958.739 596.812 964.148 604.311 964.148 611.81 964.148 617.834 958.616 617.834 951.117 617.711 943.741 611.687 938.209 604.311 938.209Z" fill="#151922" fill-rule="evenodd"/></g><g mask="url(#mask3_2222_8112)"><path clip-rule="evenodd" d="M636.397 938.823V945.954C635.413 945.708 634.43 945.708 634.061 945.708 630.619 945.708 628.16 948.166 628.16 952.715V963.533H621.03V938.823H627.914V942.388H628.037C629.39 939.561 631.848 938.455 634.43 938.455 635.044 938.578 635.905 938.701 636.397 938.823Z" fill="#151922" fill-rule="evenodd"/></g><g mask="url(#mask4_2222_8112)"><path clip-rule="evenodd" d="M651.149 957.509C647.707 957.509 645.002 954.928 645.002 951.117 645.002 947.429 647.707 944.847 651.149 944.847 654.591 944.847 657.295 947.429 657.295 951.117 657.295 954.928 654.591 957.509 651.149 957.509ZM657.172 927.268V941.651H657.049C654.468 938.7 651.026 938.332 649.673 938.332 642.543 938.332 637.872 944.847 637.872 951.117 637.872 957.755 642.42 964.025 649.673 964.025 651.395 964.025 655.083 963.779 657.418 960.46H657.541V963.656H664.548V927.391H657.172V927.268Z" fill="#151922" fill-rule="evenodd"/></g><g mask="url(#mask5_2222_8112)"><path clip-rule="evenodd" d="M679.67 963.533 666.516 927.268H674.629L684.095 954.805 693.561 927.268H701.429L688.275 963.533H679.67Z" fill="#151922" fill-rule="evenodd"/></g><g mask="url(#mask6_2222_8112)"><path clip-rule="evenodd" d="M717.41 943.741H712.001V934.275H717.287C720.36 934.275 723.311 935.504 723.311 938.946 723.434 942.511 720.36 943.741 717.41 943.741ZM718.025 927.268H704.502V963.533H712.001V950.748H717.656C725.278 950.748 730.933 946.937 730.933 938.946 731.056 931.201 725.278 927.268 718.025 927.268Z" fill="#151922" fill-rule="evenodd"/></g><g mask="url(#mask7_2222_8112)"><path clip-rule="evenodd" d="M758.839 963.533 742.243 938.577V963.533H734.744V927.268H743.349L759.085 950.994V927.268H766.584V963.533H758.839Z" fill="#151922" fill-rule="evenodd"/></g><g mask="url(#mask8_2222_8112)"><path clip-rule="evenodd" d="M443.391 980.744C437.736 972.999 434.417 963.41 434.417 953.084 434.417 927.022 455.438 906 481.5 906 507.562 906 528.584 927.145 528.584 953.084 528.584 963.41 525.265 972.999 519.61 980.744L496.99 943.987 494.777 947.675 496.99 957.878 481.5 931.324 471.911 947.552 474.124 957.878 466.011 943.987 443.391 980.744Z" fill="#3e5fff" fill-rule="evenodd"/></g><circle cx="347" cy="686" fill="#95d1f9" r="60"/><path d="M340.6 694.2C339.72 694.2 339 693.48 339 692.6 339 691.72 339.72 691 340.6 691H348.6C349.48 691 350.2 691.72 350.2 692.6 350.2 693.48 349.48 694.2 348.6 694.2H340.6ZM367 660.6C361.61 660.6 357.4 664.898 357.4 670.2V676.6H359C363.42 676.6 367 680.18 367 684.6V700.6C367 705.02 363.42 708.6 359 708.6H330.2C325.782 708.6 322.2 705.02 322.2 700.6V684.6C322.2 680.18 325.782 676.6 330.2 676.6H354.2V670.2C354.2 663.131 359.93 657.4 367 657.4 374.07 657.4 379.8 663.131 379.8 670.2V678.2C379.8 679.08 379.08 679.8 378.2 679.8 377.32 679.8 376.6 679.08 376.6 678.2V670.2C376.6 664.898 372.3 660.6 367 660.6ZM325.4 684.6V700.6C325.4 703.25 327.549 705.4 330.2 705.4H359C361.65 705.4 363.8 703.25 363.8 700.6V684.6C363.8 681.95 361.65 679.8 359 679.8H330.2C327.549 679.8 325.4 681.95 325.4 684.6Z" fill="#000000"/><circle cx="847" cy="686" fill="#95d1f9" r="60"/><path d="M840.6 694.2C839.72 694.2 839 693.48 839 692.6 839 691.72 839.72 691 840.6 691H848.6C849.48 691 850.2 691.72 850.2 692.6 850.2 693.48 849.48 694.2 848.6 694.2H840.6ZM867 660.6C861.61 660.6 857.4 664.898 857.4 670.2V676.6H859C863.42 676.6 867 680.18 867 684.6V700.6C867 705.02 863.42 708.6 859 708.6H830.2C825.782 708.6 822.2 705.02 822.2 700.6V684.6C822.2 680.18 825.782 676.6 830.2 676.6H854.2V670.2C854.2 663.131 859.93 657.4 867 657.4 874.07 657.4 879.8 663.131 879.8 670.2V678.2C879.8 679.08 879.08 679.8 878.2 679.8 877.32 679.8 876.6 679.08 876.6 678.2V670.2C876.6 664.898 872.3 660.6 867 660.6ZM825.4 684.6V700.6C825.4 703.25 827.549 705.4 830.2 705.4H859C861.65 705.4 863.8 703.25 863.8 700.6V684.6C863.8 681.95 861.65 679.8 859 679.8H830.2C827.549 679.8 825.4 681.95 825.4 684.6Z" fill="#000000"/></svg>